<svg width="50" height="50" viewBox="0 0 50 50" fill="none" xmlns="http://www.w3.org/2000/svg">
<path d="M28.8017 33.0028C28.8017 32.4615 28.3626 32.0225 27.8213 32.0225H8.11417C7.57286 32.0225 7.13379 32.4615 7.13379 33.0028C7.13379 33.5441 7.57286 33.9832 8.11417 33.9832H27.8213C28.3626 33.9832 28.8017 33.5441 28.8017 33.0028Z" fill="#1CAF57"/>
<path d="M40.5239 41.3803H36.2934V25.592C36.2934 25.0507 35.8543 24.6117 35.313 24.6117C34.7717 24.6117 34.3327 25.0507 34.3327 25.592V41.3803H14.2944C13.7531 41.3803 13.3141 41.8194 13.3141 42.3607C13.3141 45.491 10.7674 48.0381 7.63779 48.0392C4.50745 48.0381 1.96075 45.491 1.96075 42.3607V10.4759H3.06816V11.8351C3.06816 12.3764 3.50723 12.8155 4.04854 12.8155H9.53674C10.078 12.8155 10.5171 12.3764 10.5171 11.8351V10.4759H25.7763V11.8351C25.7763 12.3764 26.2154 12.8155 26.757 12.8155H32.2449C32.7862 12.8155 33.2253 12.3764 33.2253 11.8351V10.4759H34.3327V17.749C34.3327 18.2903 34.7717 18.7294 35.313 18.7294C35.8543 18.7294 36.2934 18.2903 36.2934 17.749V9.49554C36.2934 8.95424 35.8543 8.51517 35.313 8.51517H33.2253V7.15599C33.2253 6.61469 32.7862 6.17561 32.2449 6.17561H30.4813V0.980377C30.4813 0.439072 30.0423 0 29.501 0C28.9597 0 28.5206 0.439072 28.5206 0.980377V6.17561H26.757C26.2157 6.17561 25.7767 6.61469 25.7767 7.15599V8.51517H10.5171V7.15599C10.5171 6.61469 10.078 6.17561 9.53674 6.17561H7.77321V0.980377C7.77321 0.439072 7.33414 0 6.79283 0C6.25114 0 5.81207 0.439072 5.81207 0.980377V6.17561H4.04854C3.50723 6.17561 3.06816 6.61469 3.06816 7.15599V8.51517H0.980377C0.439072 8.51517 0 8.95424 0 9.49554V42.3607C0 46.5687 3.4214 49.995 7.62939 49.9996C7.6313 49.9996 7.63321 50 7.6355 50H33.8646C38.0772 50 41.5043 46.5729 41.5043 42.3607C41.5043 41.8194 41.0652 41.3803 40.5239 41.3803ZM27.737 8.13637H31.2645V10.8547H27.737V8.13637ZM5.02892 8.13637H8.55637V10.8547H5.02892V8.13637ZM33.8646 48.0392H12.7441C14.0697 46.8464 14.9773 45.1965 15.2161 43.3411H39.4585C38.9927 46.0068 36.6615 48.0392 33.8646 48.0392Z" fill="#1CAF57"/>
<path d="M8.11432 29.5611H27.8214C28.175 29.5611 28.5016 29.3707 28.6752 29.0625C28.8491 28.7543 28.8434 28.3766 28.6607 28.0737L20.3111 14.2527C20.1333 13.959 19.8151 13.7793 19.4718 13.7793C19.1285 13.7793 18.81 13.959 18.6326 14.2527L15.305 19.7607L14.6401 18.6606C14.4627 18.3669 14.1442 18.1872 13.8009 18.1872C13.4576 18.1872 13.1394 18.3669 12.9617 18.6606L7.27509 28.0737C7.09198 28.3766 7.08664 28.7543 7.26021 29.0625C7.43416 29.3707 7.7607 29.5611 8.11432 29.5611ZM19.4718 16.656L26.0835 27.6007H20.041L16.4502 21.657L19.4718 16.656ZM13.8013 21.0635L17.7502 27.6007H9.85192L13.8013 21.0635Z" fill="#1CAF57"/>
<path d="M11.3398 35.5493C10.7981 35.5493 10.3594 35.9884 10.3594 36.5297C10.3594 37.071 10.7981 37.5101 11.3398 37.5101H20.6674C21.2088 37.5101 21.6478 37.071 21.6478 36.5297C21.6478 35.9884 21.2088 35.5493 20.6674 35.5493H11.3398Z" fill="#1CAF57"/>
<path d="M25.4122 35.986C25.1791 35.6373 24.7316 35.4687 24.3273 35.5878C23.9386 35.7022 23.6548 36.0451 23.6197 36.4499C23.5846 36.8569 23.8203 37.2555 24.1922 37.4222C24.5615 37.5878 25.0021 37.5096 25.2893 37.2231C25.6166 36.897 25.6685 36.3694 25.4122 35.986Z" fill="#1CAF57"/>
<path d="M36.2222 21.2957C36.0654 20.9161 35.6744 20.6697 35.2643 20.6918C34.8566 20.7139 34.4984 20.9955 34.3793 21.3861C34.2618 21.7714 34.3999 22.2032 34.7204 22.4481C35.05 22.7006 35.5157 22.7163 35.8617 22.4859C36.2455 22.2303 36.3985 21.7218 36.2222 21.2957Z" fill="#1CAF57"/>
</svg>
