<svg width="50" height="50" viewBox="0 0 50 50" fill="none" xmlns="http://www.w3.org/2000/svg">
<rect opacity="0.1" width="50" height="50" rx="6" fill="#1CAF57"/>
<path d="M25 32C28.866 32 32 28.866 32 25C32 21.134 28.866 18 25 18C21.134 18 18 21.134 18 25C18 28.866 21.134 32 25 32Z" stroke="#1CAF57" stroke-width="1.5" stroke-linecap="round" stroke-linejoin="round"/>
<path d="M25 22V25L26.5 26.5" stroke="#1CAF57" stroke-width="1.5" stroke-linecap="round" stroke-linejoin="round"/>
<path d="M20.4905 19.65L20.8405 15.82C20.8854 15.3231 21.1144 14.8609 21.4826 14.5241C21.8508 14.1874 22.3315 14.0005 22.8305 14H27.1805C27.6811 13.998 28.1644 14.1838 28.5347 14.5208C28.905 14.8577 29.1354 15.3213 29.1805 15.82L29.5305 19.65M29.5105 30.35L29.1605 34.18C29.1154 34.6786 28.885 35.1422 28.5147 35.4792C28.1444 35.8162 27.6611 36.002 27.1605 36H22.8305C22.3298 36.002 21.8466 35.8162 21.4763 35.4792C21.106 35.1422 20.8755 34.6786 20.8305 34.18L20.4805 30.35L22.5005 31.5L25.0005 32L27.1605 31.5L29.5105 30.35Z" stroke="#1CAF57" stroke-width="1.5" stroke-linecap="round" stroke-linejoin="round"/>
</svg>
