<svg width="22" height="22" viewBox="0 0 22 22" fill="none" xmlns="http://www.w3.org/2000/svg">
<path d="M21 15.9201V18.9201C21.0011 19.1986 20.9441 19.4743 20.8325 19.7294C20.7209 19.9846 20.5573 20.2137 20.3521 20.402C20.1469 20.5902 19.9046 20.7336 19.6408 20.8228C19.3769 20.912 19.0974 20.9452 18.82 20.9201C15.7428 20.5857 12.787 19.5342 10.19 17.8501C7.77383 16.3148 5.72534 14.2663 4.19 11.8501C2.49998 9.2413 1.44824 6.27109 1.12 3.1801C1.09501 2.90356 1.12788 2.62486 1.2165 2.36172C1.30513 2.09859 1.44757 1.85679 1.63477 1.65172C1.82196 1.44665 2.04981 1.28281 2.30379 1.17062C2.55778 1.05843 2.83234 1.00036 3.11 1.0001H6.11C6.59531 0.995321 7.06579 1.16718 7.43376 1.48363C7.80173 1.80008 8.04208 2.23954 8.11 2.7201C8.23662 3.68016 8.47145 4.62282 8.81 5.5301C8.94455 5.88802 8.97366 6.27701 8.89391 6.65098C8.81415 7.02494 8.62886 7.36821 8.36 7.6401L7.09 8.9101C8.51356 11.4136 10.5865 13.4865 13.09 14.9101L14.36 13.6401C14.6319 13.3712 14.9752 13.1859 15.3491 13.1062C15.7231 13.0264 16.1121 13.0556 16.47 13.1901C17.3773 13.5286 18.3199 13.7635 19.28 13.8901C19.7658 13.9586 20.2094 14.2033 20.5265 14.5776C20.8437 14.9519 21.0122 15.4297 21 15.9201Z" stroke="#1CAF57" stroke-width="1.5" stroke-linecap="round" stroke-linejoin="round"/>
</svg>
