<svg width="50" height="50" viewBox="0 0 50 50" fill="none" xmlns="http://www.w3.org/2000/svg">
<path d="M19.4977 45.9875C19.4977 46.4187 19.1551 46.7723 18.7239 46.7723C18.2926 46.7723 17.9391 46.4187 17.9391 45.9875V36.1594C17.9391 35.4965 18.2262 34.8992 18.6906 34.4683C19.1442 34.0484 19.7524 33.7941 20.4266 33.7941H29.5688C30.243 33.7941 30.8621 34.048 31.3039 34.4683C31.768 34.8996 32.0563 35.4965 32.0563 36.1594V45.9875C32.0563 46.4187 31.7133 46.7723 31.2821 46.7723C30.8508 46.7723 30.4973 46.4187 30.4973 45.9875V36.1594C30.4973 35.9496 30.4086 35.7504 30.2539 35.607C30.0774 35.4523 29.8449 35.3527 29.5688 35.3527H25.7766V45.9879C25.7766 46.4191 25.4344 46.7726 25.0032 46.7726C24.5723 46.7726 24.2184 46.4191 24.2184 45.9879V35.3523H20.4266C20.1614 35.3523 19.9289 35.4523 19.7524 35.6066C19.5977 35.75 19.4981 35.9492 19.4981 36.159V45.9875H19.4977Z" fill="#1CAF57"/>
<path d="M17.2981 23.3141H22.4051C22.8363 23.3141 23.1789 23.657 23.1789 24.0879V28.8418C23.1789 29.2731 22.8363 29.6149 22.4051 29.6149H17.2981C16.8668 29.6149 16.5242 29.2727 16.5242 28.8418V24.0879C16.5238 23.657 16.8668 23.3141 17.2981 23.3141ZM17.2981 13.8621H22.4051C22.8363 13.8621 23.1789 14.2051 23.1789 14.6359V19.3895C23.1789 19.8207 22.8363 20.1633 22.4051 20.1633H17.2981C16.8668 20.1633 16.5242 19.8203 16.5242 19.3895V14.6363C16.5238 14.2051 16.8668 13.8621 17.2981 13.8621ZM21.6203 15.4215H18.0828V18.6047H21.6203V15.4215ZM30.1543 18.6047C30.5856 18.6047 30.9277 18.9586 30.9277 19.3899C30.9277 19.8211 30.5852 20.1637 30.1543 20.1637H27.6008C27.1695 20.1637 26.8156 19.8207 26.8156 19.3899V14.6363C26.8156 14.2051 27.1692 13.8625 27.6008 13.8625C28.032 13.8625 28.3746 14.2055 28.3746 14.6363V18.6047H30.1543ZM27.6008 23.3141H32.6969C33.1281 23.3141 33.4817 23.657 33.4817 24.0879V28.8418C33.4817 29.2731 33.1281 29.6149 32.6969 29.6149H27.6008C27.1695 29.6149 26.8156 29.2727 26.8156 28.8418V24.0879C26.8156 23.657 27.1695 23.3141 27.6008 23.3141ZM31.9235 24.8731H28.375V28.0567H31.9235V24.8731ZM21.6203 24.8731H18.0828V28.0567H21.6203V24.8731Z" fill="#1CAF57"/>
<path d="M38.1355 23.9445C37.9148 24.3094 37.4398 24.4418 37.0746 24.2207C36.9527 24.1434 36.8535 24.0441 36.7871 23.9336L30.0879 12.5801C29.7449 11.9941 29.4578 11.2426 29.2813 10.5793C29.1039 9.89375 29.0156 9.18672 29.0156 8.45664C29.0156 6.12383 29.9555 4.01289 31.4918 2.47578C33.0176 0.950781 35.1289 0 37.4727 0C39.8051 0 41.9164 0.950781 43.4531 2.47617C44.9785 4.01328 45.9297 6.12422 45.9297 8.45703C45.9297 9.18672 45.8301 9.89414 45.6535 10.5797C45.4762 11.2875 45.1996 11.9504 44.8574 12.5695L38.1355 23.9445ZM37.4727 22.0207L43.5082 11.7949C43.7848 11.2977 44.0059 10.7559 44.1496 10.1922C44.293 9.63906 44.3703 9.06445 44.3703 8.45664C44.3703 6.55508 43.5973 4.83086 42.3477 3.58164C41.0984 2.33281 39.3738 1.55859 37.4727 1.55859C35.5602 1.55859 33.8355 2.33242 32.5867 3.58164C31.348 4.83086 30.5746 6.55508 30.5746 8.45664C30.5746 9.06484 30.6516 9.63906 30.7848 10.1922C30.9281 10.7445 31.1492 11.2754 31.4145 11.7727L37.4727 22.0207Z" fill="#1CAF57"/>
<path d="M37.4727 3.94647C38.711 3.94647 39.8383 4.45546 40.6559 5.27303C41.4742 6.08007 41.9828 7.20741 41.9828 8.45663C41.9828 9.70545 41.4739 10.8336 40.6559 11.6515C39.8379 12.4586 38.711 12.9668 37.4727 12.9668C36.2235 12.9668 35.0957 12.4586 34.2778 11.6515C33.4598 10.8336 32.9625 9.70585 32.9625 8.45663C32.9625 7.20741 33.4598 6.08007 34.2778 5.27303C35.0957 4.45507 36.2231 3.94647 37.4727 3.94647ZM39.5508 6.36757C39.0199 5.8371 38.2797 5.50546 37.4727 5.50546C36.6547 5.50546 35.9137 5.8371 35.3832 6.36757C34.8524 6.90936 34.5211 7.63866 34.5211 8.45702C34.5211 9.27499 34.8524 10.0156 35.3832 10.5465C35.9133 11.0769 36.6547 11.4086 37.4727 11.4086C38.2797 11.4086 39.0199 11.0769 39.5508 10.5465C40.0922 10.016 40.4239 9.27499 40.4239 8.45702C40.4239 7.63866 40.0922 6.90936 39.5508 6.36757Z" fill="#1CAF57"/>
<path d="M41.0758 37.9726C40.6445 37.9726 40.3027 37.6191 40.3027 37.1879C40.3027 36.7566 40.6449 36.4137 41.0758 36.4137H43.9059C44.8789 36.4137 45.7414 36.9777 46.1172 37.873L49.7762 46.7832C49.9309 47.159 49.9859 47.5351 49.9418 47.9109C49.8645 48.6738 49.3555 49.3809 48.6813 49.7348C48.3387 49.9117 47.9629 50.0004 47.5652 50.0004H2.44063C2.04258 50.0004 1.6668 49.9117 1.32422 49.7348C0.638672 49.3809 0.141407 48.6738 0.0531255 47.9109C0.0199224 47.5351 0.0750005 47.159 0.218751 46.7832L3.88906 37.873C4.26484 36.9777 5.12695 36.4137 6.1 36.4137H8.90781C9.33906 36.4137 9.68164 36.757 9.68164 37.1879C9.68164 37.6187 9.33906 37.9726 8.90781 37.9726H6.1C5.75742 37.9726 5.45859 38.1383 5.32617 38.4699L1.66719 47.3797C1.61172 47.5019 1.58984 47.623 1.60078 47.7449C1.63398 47.9992 1.81094 48.2312 2.03203 48.3531C2.15352 48.4086 2.28594 48.4418 2.44102 48.4418H47.566C47.7207 48.4418 47.8531 48.4086 47.9641 48.3531C48.1965 48.2312 48.373 47.9996 48.3953 47.7449C48.4062 47.623 48.3953 47.5019 48.3398 47.3797L44.6809 38.4699C44.548 38.1379 44.2496 37.9726 43.907 37.9726H41.0758Z" fill="#1CAF57"/>
<path d="M36.6879 27.2937C36.6879 26.8625 37.0414 26.5086 37.4727 26.5086C37.9039 26.5086 38.2465 26.8625 38.2465 27.2937V45.9871C38.2465 46.4183 37.9036 46.7719 37.4727 46.7719H12.5332C12.102 46.7719 11.7594 46.4183 11.7594 45.9871V11.8176C11.7594 11.1543 12.0469 10.557 12.5114 10.1262C12.9535 9.70585 13.5727 9.44061 14.2469 9.44061H26.5504C26.9817 9.44061 27.3243 9.79413 27.3243 10.2258C27.3243 10.657 26.9813 11.0105 26.5504 11.0105H14.2469C13.9703 11.0105 13.7383 11.0992 13.5617 11.2648C13.4071 11.4082 13.3184 11.6074 13.3184 11.8176V45.2129H36.6883V27.2937H36.6879Z" fill="#1CAF57"/>
</svg>
