<svg width="16" height="16" viewBox="0 0 16 16" fill="none" xmlns="http://www.w3.org/2000/svg">
<g clip-path="url(#clip0_69_4160)">
<path d="M8 0.666626V15.3333" stroke="#66737F" stroke-width="1.5" stroke-linecap="round" stroke-linejoin="round"/>
<path d="M11.3333 3.33337H6.33333C5.71449 3.33337 5.121 3.57921 4.68342 4.01679C4.24583 4.45438 4 5.04787 4 5.66671C4 6.28555 4.24583 6.87904 4.68342 7.31662C5.121 7.75421 5.71449 8.00004 6.33333 8.00004H9.66667C10.2855 8.00004 10.879 8.24587 11.3166 8.68346C11.7542 9.12104 12 9.71454 12 10.3334C12 10.9522 11.7542 11.5457 11.3166 11.9833C10.879 12.4209 10.2855 12.6667 9.66667 12.6667H4" stroke="#66737F" stroke-width="1.5" stroke-linecap="round" stroke-linejoin="round"/>
</g>
<defs>
<clipPath id="clip0_69_4160">
<rect width="16" height="16" fill="white"/>
</clipPath>
</defs>
</svg>
