<svg width="50" height="50" viewBox="0 0 50 50" fill="none" xmlns="http://www.w3.org/2000/svg">
<path d="M41.1186 40.512C40.7141 40.512 40.3862 40.8399 40.3862 41.2444V48.1306C40.3862 48.3535 40.2047 48.535 39.9818 48.535H36.0446V34.1114C36.0446 33.7069 35.7167 33.379 35.3122 33.379C34.9077 33.379 34.5797 33.7069 34.5797 34.1114V48.5351H26.6515L28.9506 46.0058C29.2018 45.7294 29.3203 45.3357 29.2674 44.9523C29.2665 44.9449 29.2653 44.9375 29.264 44.9301L27.0743 31.9938L27.6642 31.1058C27.9904 31.3374 28.2417 31.5604 28.7129 31.5604C29.1921 31.5604 29.6403 31.2922 29.8608 30.8506V30.8505L32.1704 26.2216L37.4317 28.2592C37.622 28.3408 40.386 29.5855 40.386 32.8723V37.8264C40.3859 38.2308 40.7138 38.5588 41.1184 38.5588C41.5229 38.5588 41.8508 38.2309 41.8508 37.8264V32.8723C41.8508 28.5418 38.1429 26.9677 37.9851 26.9027C37.9805 26.9008 37.9758 26.8989 37.9712 26.8972L29.2145 23.506V21.4522C30.6053 20.3706 31.5697 18.7672 31.8118 16.9379C32.5052 16.8891 33.1487 16.6301 33.6742 16.1782C34.3604 15.5881 34.7542 14.7292 34.7542 13.8222C34.7542 13.0694 34.4826 12.3507 33.9986 11.7906V9.07744C33.9985 4.07217 29.9264 0 24.9211 0C19.9159 0 15.8438 4.07217 15.8438 9.07744V11.8617C15.3546 12.4161 15.0886 13.0985 15.0886 13.8221C15.0886 14.7294 15.4822 15.5882 16.1686 16.1784C16.6937 16.6301 17.3368 16.8888 18.03 16.9377C18.2741 18.8013 19.2666 20.4645 20.7758 21.5606V23.506L12.0287 26.8971C12.0241 26.8988 12.0195 26.9007 12.0149 26.9025C11.857 26.9675 8.14917 28.5416 8.14917 32.8721V48.1304C8.14917 49.1611 8.98774 49.9997 10.0185 49.9997H16.9967C17.4012 49.9997 17.7292 49.6718 17.7292 49.2673C17.7292 48.8628 17.4012 48.5349 16.9967 48.5349H15.4209V34.1114C15.4209 33.7069 15.0929 33.379 14.6884 33.379C14.2839 33.379 13.956 33.7069 13.956 34.1114V48.5351H10.0186C9.79565 48.5351 9.61421 48.3536 9.61421 48.1307V32.8722C9.61421 29.5744 12.3967 28.3325 12.5676 28.2595L17.8249 26.2214L20.1346 30.8505C20.3556 31.2932 20.8043 31.5604 21.2827 31.5604C21.7515 31.5604 22.0003 31.3408 22.3313 31.1058L22.9212 31.9938L20.7317 44.9302C20.7304 44.9375 20.7293 44.9448 20.7283 44.9522C20.6753 45.3354 20.7938 45.7293 21.0451 46.0059L23.3442 48.5352H20.415C20.0105 48.5352 19.6826 48.8631 19.6826 49.2676C19.6826 49.6721 20.0105 50 20.415 50H39.9819C41.0127 50 41.8512 49.1613 41.8512 48.1307V41.2445C41.851 40.8399 41.5231 40.512 41.1186 40.512ZM30.7984 25.6903L28.6452 30.0058C28.5917 29.9678 27.4505 29.157 26.0556 28.1665C26.6609 27.4193 25.9528 28.2934 28.7153 24.8836L30.7984 25.6903ZM26.4691 30.2571L25.9107 31.0977H24.0842L23.5258 30.2571L24.9975 29.2119L26.4691 30.2571ZM22.2406 23.7423V22.3716C23.1304 22.7303 24.0814 22.8966 25.0101 22.8966C25.9704 22.8966 26.9121 22.6919 27.7496 22.3257V23.7482L24.9975 27.1452L22.2406 23.7423ZM33.2892 13.8222C33.2891 14.302 33.0813 14.756 32.719 15.0676C32.4795 15.2736 32.1901 15.4054 31.8732 15.4569V12.1877C32.715 12.3244 33.2892 13.0227 33.2892 13.8222ZM17.9695 15.4569C17.1181 15.3188 16.5535 14.6148 16.5535 13.8221C16.5535 13.0391 17.2026 12.4018 17.9695 12.2245V15.4569ZM18.0088 10.732C17.7755 10.7588 17.5082 10.822 17.3088 10.8897V9.07744C17.3088 4.87988 20.7237 1.46494 24.9212 1.46494C29.1188 1.46494 32.5337 4.87988 32.5337 9.07744V10.8395C32.3208 10.7747 32.1 10.7319 31.8733 10.7118C31.8733 10.0051 31.8794 10.1414 29.5674 7.65576C29.1422 7.19893 28.4389 7.10322 27.9037 7.45293C25.3519 9.11982 22.2391 9.95723 19.367 9.75098C18.7371 9.70381 18.1632 10.1188 18.0088 10.732ZM19.4344 16.0336V11.4641V11.2233C22.596 11.4085 25.9108 10.4692 28.5886 8.7543C29.649 9.89277 30.2232 10.4899 30.4084 10.7171C30.4084 11.2917 30.4084 15.3758 30.4084 16.0335C30.4084 19.0068 27.9839 21.4315 25.0102 21.4315C21.671 21.4316 19.4344 18.8412 19.4344 16.0336ZM21.35 30.0058L19.1967 25.6903L21.2761 24.885L23.9364 28.1687C22.5836 29.1293 21.4727 29.9186 21.35 30.0058ZM22.1903 45.0881L24.3103 32.5624H25.6844L27.8045 45.0881L24.9974 48.1763L22.1903 45.0881Z" fill="#1CAF57"/>
</svg>
