<svg width="220" height="50" viewBox="0 0 220 50" fill="none" xmlns="http://www.w3.org/2000/svg">
<path d="M11.192 20.864L20.36 34.88L29.576 20.864L31.592 38H40.136L34.712 2.72L20.36 23.216L6.056 2.72L0.632 38H9.176L11.192 20.864ZM55.814 38.48C58.63 38.48 61.014 37.936 62.966 36.848C64.95 35.76 66.518 34.128 67.67 31.952L61.19 30.368C60.646 31.328 59.91 32.048 58.982 32.528C58.086 33.008 56.998 33.248 55.718 33.248C54.598 33.248 53.654 33.008 52.886 32.528C52.118 32.016 51.542 31.28 51.158 30.32C50.774 29.36 50.582 28.208 50.582 26.864C50.614 25.392 50.806 24.176 51.158 23.216C51.542 22.224 52.102 21.488 52.838 21.008C53.574 20.528 54.486 20.288 55.574 20.288C56.438 20.288 57.19 20.48 57.83 20.864C58.47 21.248 58.966 21.792 59.318 22.496C59.67 23.2 59.846 24.032 59.846 24.992C59.846 25.216 59.782 25.504 59.654 25.856C59.558 26.176 59.43 26.448 59.27 26.672L60.998 24.464H47.366V28.496H67.526C67.59 28.272 67.622 28 67.622 27.68C67.622 27.328 67.622 26.976 67.622 26.624C67.622 24.256 67.158 22.24 66.23 20.576C65.302 18.912 63.958 17.648 62.198 16.784C60.438 15.888 58.278 15.44 55.718 15.44C53.158 15.44 50.934 15.904 49.046 16.832C47.19 17.76 45.766 19.088 44.774 20.816C43.782 22.544 43.286 24.592 43.286 26.96C43.286 29.296 43.798 31.328 44.822 33.056C45.846 34.784 47.286 36.128 49.142 37.088C51.03 38.016 53.254 38.48 55.814 38.48ZM69.5056 15.92V21.92H84.2896V15.92H69.5056ZM73.3936 8.24V38H80.3536V8.24H73.3936ZM92.9949 31.088C92.9949 30.544 93.1229 30.096 93.3789 29.744C93.6349 29.36 94.0189 29.072 94.5309 28.88C95.0429 28.688 95.7309 28.592 96.5949 28.592C97.7149 28.592 98.7709 28.752 99.7629 29.072C100.787 29.36 101.683 29.792 102.451 30.368V27.152C102.067 26.736 101.491 26.336 100.723 25.952C99.9549 25.568 99.0269 25.248 97.9389 24.992C96.8829 24.736 95.6829 24.608 94.3389 24.608C91.5869 24.608 89.4589 25.232 87.9549 26.48C86.4509 27.696 85.6989 29.36 85.6989 31.472C85.6989 32.976 86.0509 34.256 86.7549 35.312C87.4909 36.368 88.4509 37.168 89.6349 37.712C90.8509 38.224 92.1629 38.48 93.5709 38.48C94.9789 38.48 96.2909 38.24 97.5069 37.76C98.7229 37.248 99.7149 36.512 100.483 35.552C101.251 34.56 101.635 33.36 101.635 31.952L100.867 29.072C100.867 30.096 100.643 30.96 100.195 31.664C99.7469 32.368 99.1709 32.896 98.4669 33.248C97.7629 33.6 96.9949 33.776 96.1629 33.776C95.5869 33.776 95.0589 33.68 94.5789 33.488C94.0989 33.264 93.7149 32.96 93.4269 32.576C93.1389 32.16 92.9949 31.664 92.9949 31.088ZM89.7789 22.688C90.0989 22.496 90.6109 22.256 91.3149 21.968C92.0189 21.648 92.8349 21.376 93.7629 21.152C94.7229 20.928 95.6989 20.816 96.6909 20.816C97.3629 20.816 97.9549 20.88 98.4669 21.008C99.0109 21.136 99.4589 21.344 99.8109 21.632C100.163 21.92 100.419 22.272 100.579 22.688C100.771 23.072 100.867 23.536 100.867 24.08V38H107.827V22.448C107.827 20.912 107.379 19.616 106.483 18.56C105.587 17.504 104.371 16.704 102.835 16.16C101.299 15.584 99.5549 15.296 97.6029 15.296C95.5229 15.296 93.6029 15.568 91.8429 16.112C90.0829 16.656 88.5789 17.232 87.3309 17.84L89.7789 22.688Z" fill="white"/>
<path d="M121.356 41.072L116.94 46.736C117.612 47.184 118.412 47.6 119.34 47.984C120.268 48.4 121.308 48.752 122.46 49.04C123.612 49.328 124.812 49.472 126.061 49.472C127.533 49.472 128.941 49.296 130.285 48.944C131.629 48.624 132.813 48.112 133.837 47.408C134.861 46.736 135.661 45.824 136.237 44.672C136.813 43.552 137.101 42.192 137.101 40.592V4.4H128.365V38.768C128.365 40.176 128.029 41.168 127.357 41.744C126.685 42.352 125.981 42.656 125.245 42.656C124.541 42.656 123.836 42.496 123.132 42.176C122.428 41.856 121.836 41.488 121.356 41.072ZM142.192 26.96C142.192 29.264 142.736 31.28 143.824 33.008C144.912 34.736 146.416 36.08 148.336 37.04C150.256 38 152.416 38.48 154.816 38.48C157.216 38.48 159.36 38 161.248 37.04C163.168 36.08 164.672 34.736 165.76 33.008C166.88 31.28 167.44 29.264 167.44 26.96C167.44 24.624 166.88 22.592 165.76 20.864C164.672 19.136 163.168 17.792 161.248 16.832C159.36 15.872 157.216 15.392 154.816 15.392C152.416 15.392 150.256 15.872 148.336 16.832C146.416 17.792 144.912 19.136 143.824 20.864C142.736 22.592 142.192 24.624 142.192 26.96ZM149.632 26.96C149.632 25.808 149.872 24.816 150.352 23.984C150.832 23.152 151.456 22.512 152.224 22.064C152.992 21.616 153.856 21.392 154.816 21.392C155.744 21.392 156.592 21.616 157.36 22.064C158.16 22.512 158.784 23.152 159.232 23.984C159.712 24.816 159.952 25.808 159.952 26.96C159.952 28.112 159.712 29.104 159.232 29.936C158.784 30.736 158.16 31.36 157.36 31.808C156.592 32.256 155.744 32.48 154.816 32.48C153.856 32.48 152.992 32.256 152.224 31.808C151.456 31.36 150.832 30.736 150.352 29.936C149.872 29.104 149.632 28.112 149.632 26.96ZM178.954 0.559999H171.706V38H178.954V0.559999ZM197.002 26.96C197.002 24.464 196.49 22.368 195.466 20.672C194.474 18.976 193.178 17.68 191.578 16.784C190.01 15.888 188.314 15.44 186.49 15.44C184.666 15.44 183.034 15.904 181.594 16.832C180.154 17.76 179.018 19.088 178.186 20.816C177.354 22.512 176.938 24.56 176.938 26.96C176.938 29.328 177.354 31.376 178.186 33.104C179.018 34.832 180.154 36.16 181.594 37.088C183.034 38.016 184.666 38.48 186.49 38.48C188.314 38.48 190.01 38.032 191.578 37.136C193.178 36.24 194.474 34.944 195.466 33.248C196.49 31.52 197.002 29.424 197.002 26.96ZM189.37 26.96C189.37 28.112 189.13 29.12 188.65 29.984C188.17 30.816 187.53 31.472 186.73 31.952C185.93 32.4 185.05 32.624 184.09 32.624C183.258 32.624 182.442 32.4 181.642 31.952C180.874 31.504 180.234 30.864 179.722 30.032C179.21 29.168 178.954 28.144 178.954 26.96C178.954 25.776 179.21 24.768 179.722 23.936C180.234 23.072 180.874 22.416 181.642 21.968C182.442 21.52 183.258 21.296 184.09 21.296C185.05 21.296 185.93 21.536 186.73 22.016C187.53 22.464 188.17 23.12 188.65 23.984C189.13 24.816 189.37 25.808 189.37 26.96ZM202.579 29.984L199.555 34.784C200.547 35.552 201.619 36.256 202.771 36.896C203.923 37.504 205.171 37.984 206.515 38.336C207.891 38.72 209.363 38.912 210.931 38.912C213.587 38.912 215.635 38.32 217.075 37.136C218.547 35.92 219.283 34.128 219.283 31.76C219.283 30.384 218.979 29.28 218.371 28.448C217.795 27.616 217.011 26.928 216.019 26.384C215.059 25.84 214.003 25.36 212.851 24.944C211.763 24.528 210.835 24.192 210.067 23.936C209.331 23.648 208.755 23.344 208.339 23.024C207.955 22.704 207.763 22.304 207.763 21.824C207.763 21.408 207.923 21.072 208.243 20.816C208.595 20.56 209.107 20.432 209.779 20.432C210.771 20.432 211.859 20.72 213.043 21.296C214.227 21.84 215.283 22.544 216.211 23.408L218.803 18.704C217.939 18.064 217.011 17.504 216.019 17.024C215.059 16.544 214.019 16.16 212.899 15.872C211.811 15.584 210.627 15.44 209.347 15.44C207.747 15.44 206.323 15.68 205.075 16.16C203.859 16.64 202.883 17.344 202.147 18.272C201.443 19.2 201.091 20.336 201.091 21.68C201.091 23.088 201.395 24.24 202.003 25.136C202.611 26.032 203.379 26.752 204.307 27.296C205.267 27.808 206.275 28.256 207.331 28.64C208.515 28.992 209.443 29.328 210.115 29.648C210.819 29.968 211.315 30.304 211.603 30.656C211.891 30.976 212.035 31.376 212.035 31.856C212.035 32.368 211.859 32.784 211.507 33.104C211.155 33.424 210.611 33.584 209.875 33.584C209.363 33.584 208.755 33.488 208.051 33.296C207.347 33.072 206.531 32.704 205.603 32.192C204.707 31.648 203.699 30.912 202.579 29.984Z" fill="#1CAF57"/>
</svg>
