<svg width="36" height="36" viewBox="0 0 36 36" fill="none" xmlns="http://www.w3.org/2000/svg">
<circle cx="18" cy="18" r="17.5" fill="white" stroke="#D5DDE5"/>
<g clip-path="url(#clip0_52_3249)">
<path d="M20.5156 15C20.0625 12.2094 18.9937 10.25 17.75 10.25C16.5062 10.25 15.4375 12.2094 14.9844 15H20.5156ZM14.75 18C14.75 18.6938 14.7875 19.3594 14.8531 20H20.6438C20.7094 19.3594 20.7469 18.6938 20.7469 18C20.7469 17.3063 20.7094 16.6406 20.6438 16H14.8531C14.7875 16.6406 14.75 17.3063 14.75 18ZM24.8969 15C24.0031 12.8781 22.1938 11.2375 19.9594 10.575C20.7219 11.6312 21.2469 13.2219 21.5219 15H24.8969ZM15.5375 10.575C13.3062 11.2375 11.4937 12.8781 10.6031 15H13.9781C14.25 13.2219 14.775 11.6312 15.5375 10.575ZM25.2312 16H21.6469C21.7125 16.6562 21.75 17.3281 21.75 18C21.75 18.6719 21.7125 19.3438 21.6469 20H25.2281C25.4 19.3594 25.4969 18.6938 25.4969 18C25.4969 17.3063 25.4 16.6406 25.2312 16ZM13.75 18C13.75 17.3281 13.7875 16.6562 13.8531 16H10.2688C10.1 16.6406 10 17.3063 10 18C10 18.6938 10.1 19.3594 10.2688 20H13.85C13.7875 19.3438 13.75 18.6719 13.75 18ZM14.9844 21C15.4375 23.7906 16.5062 25.75 17.75 25.75C18.9937 25.75 20.0625 23.7906 20.5156 21H14.9844ZM19.9625 25.425C22.1937 24.7625 24.0062 23.1219 24.9 21H21.525C21.25 22.7781 20.725 24.3688 19.9625 25.425ZM10.6031 21C11.4969 23.1219 13.3063 24.7625 15.5406 25.425C14.7781 24.3688 14.2531 22.7781 13.9781 21H10.6031Z" fill="#8F9CA9"/>
</g>
<defs>
<clipPath id="clip0_52_3249">
<rect width="15.5" height="16" fill="white" transform="translate(10 10)"/>
</clipPath>
</defs>
</svg>
