<svg width="50" height="50" viewBox="0 0 50 50" fill="none" xmlns="http://www.w3.org/2000/svg">
<path d="M44.4609 19.0145H31.7067C31.2982 19.0145 30.9671 19.3425 30.9671 19.7469C30.9671 20.1513 31.2983 20.4792 31.7067 20.4792H44.461C44.8695 20.4792 45.2006 20.1513 45.2006 19.7469C45.2006 19.3425 44.8694 19.0145 44.4609 19.0145Z" fill="#1CAF57"/>
<path d="M44.4609 23.4299H31.7067C31.2982 23.4299 30.9671 23.7578 30.9671 24.1622C30.9671 24.5667 31.2983 24.8946 31.7067 24.8946H44.461C44.8695 24.8946 45.2006 24.5667 45.2006 24.1622C45.2006 23.7578 44.8694 23.4299 44.4609 23.4299Z" fill="#1CAF57"/>
<path d="M45.2006 28.5777C45.2006 28.1732 44.8694 27.8454 44.461 27.8454H31.7067C31.2982 27.8454 30.9671 28.1733 30.9671 28.5777C30.9671 28.9821 31.2983 29.31 31.7067 29.31H44.461C44.8694 29.3101 45.2006 28.9822 45.2006 28.5777Z" fill="#1CAF57"/>
<path d="M31.7067 32.2606C31.2982 32.2606 30.9671 32.5886 30.9671 32.9929C30.9671 33.3973 31.2983 33.7253 31.7067 33.7253H38.0838C38.4923 33.7253 38.8234 33.3973 38.8234 32.9929C38.8234 32.5886 38.4922 32.2606 38.0838 32.2606H31.7067Z" fill="#1CAF57"/>
<path d="M48.9282 8.6124L41.3024 1.06152C40.6249 0.390137 39.6965 0 38.7145 0H13.6207C11.6028 0 9.96124 1.62559 9.96124 3.62363V11.1218C9.96124 11.5263 10.2924 11.8541 10.7008 11.8541C11.1092 11.8541 11.4404 11.5262 11.4404 11.1218V3.62363C11.4404 2.4332 12.4185 1.46475 13.6207 1.46475H38.7145C38.8741 1.46475 39.031 1.48164 39.1844 1.51514V8.18467C39.1844 9.57685 40.3282 10.7095 41.7342 10.7095H48.4691C48.5032 10.8623 48.5206 11.0188 48.5206 11.1747V46.3765C48.5206 47.5668 47.5426 48.5354 46.3404 48.5354H36.4042C37.269 47.255 37.1313 45.5026 35.9904 44.3729L29.2657 37.7143C28.776 37.2293 28.063 37.099 27.4515 37.3199L26.0036 35.8863C30.0883 30.2699 29.486 22.499 24.4907 17.5526C18.9467 12.0632 9.85058 11.9538 4.19636 17.5526C-1.39879 23.0929 -1.39879 32.1075 4.19636 37.6478C9.18734 42.5898 17.0428 43.1772 22.7113 39.1454L24.1596 40.5795C23.9365 41.1851 24.0681 41.891 24.5579 42.376L30.7783 48.5354H13.6207C12.4186 48.5354 11.4404 47.5669 11.4404 46.3765V44.0293C11.4404 43.6248 11.1092 43.297 10.7008 43.297C10.2924 43.297 9.96124 43.6249 9.96124 44.0293V46.3765C9.96124 48.3745 11.6029 50 13.6207 50H46.3405C48.3583 50 50 48.3744 50 46.3765V11.1747C50 10.2243 49.6191 9.29609 48.9282 8.6124ZM5.24247 36.612C0.224074 31.6429 0.224074 23.5575 5.24247 18.5883C10.3248 13.5559 18.4818 13.674 23.4448 18.5883C28.0658 23.164 28.4963 30.434 24.4461 35.499C23.8243 36.2765 23.1069 36.9872 22.3208 37.6034C17.2382 41.5881 9.8781 41.2021 5.24247 36.612ZM23.8761 38.2218C24.2944 37.8531 24.6933 37.4589 25.0731 37.0363L26.2911 38.2424L25.0912 39.4306L23.8733 38.2245C23.8743 38.2235 23.8751 38.2226 23.8761 38.2218ZM32.3285 47.9988L25.6039 41.3402C25.5076 41.2448 25.5074 41.0898 25.6039 40.9941L25.6137 40.9845C25.6139 40.9843 25.6141 40.9842 25.6142 40.984L27.8704 38.7499C27.9667 38.6545 28.1236 38.6545 28.2199 38.7499L34.9445 45.4086C35.6657 46.1228 35.6657 47.2847 34.9445 47.9988C34.2215 48.7146 33.0515 48.7146 32.3285 47.9988ZM40.6636 8.18467V2.50039L47.4748 9.24473H41.7343C41.1438 9.24473 40.6636 8.76914 40.6636 8.18467Z" fill="#1CAF57"/>
<path d="M30.8555 4.75229H16.1815C15.3043 4.75229 14.5907 5.45893 14.5907 6.32748V9.13439C14.5907 10.0029 15.3043 10.7096 16.1815 10.7096H30.8555C31.7327 10.7096 32.4463 10.0029 32.4463 9.13439V6.32748C32.4462 5.45893 31.7326 4.75229 30.8555 4.75229ZM30.967 9.1343C30.967 9.19514 30.917 9.24474 30.8554 9.24474H16.1815C16.1201 9.24474 16.07 9.19523 16.07 9.1343V6.32748C16.07 6.26664 16.12 6.21703 16.1815 6.21703H30.8555C30.9171 6.21703 30.9671 6.26654 30.9671 6.32748V9.1343H30.967Z" fill="#1CAF57"/>
<path d="M22.4051 35.5827C26.8503 31.1812 26.8503 24.0194 22.4051 19.6179C17.9599 15.2163 10.7273 15.2163 6.28213 19.6179C4.55266 21.3305 3.44353 23.4974 3.07467 25.8845C3.01294 26.2843 3.29007 26.658 3.69394 26.7192C4.0979 26.7806 4.47514 26.5059 4.53688 26.106C4.8578 24.0294 5.82294 22.144 7.32805 20.6535C11.1964 16.8232 17.4907 16.8232 21.3591 20.6535C25.0708 24.3287 25.2205 30.2151 21.8095 34.0695C21.4847 33.4149 20.9321 32.8819 20.2094 32.5668C19.3332 32.1849 17.8227 31.9421 16.8935 31.8208L16.8896 30.896C17.7875 30.2414 18.4248 29.2536 18.6079 28.1106C18.7658 28.0456 18.9107 27.9496 19.0348 27.8259C19.2824 27.579 19.4174 27.2516 19.4151 26.9038C19.4085 25.9332 19.4094 24.3245 19.4094 23.3874C19.4094 22.5012 18.7573 21.7628 17.9033 21.618C17.7394 20.794 17.0042 20.1705 16.1245 20.1705H12.554C10.7134 20.1705 9.21591 21.6532 9.21591 23.4758V26.9175C9.21591 27.4518 9.54522 27.9114 10.0134 28.1077C10.1924 29.2159 10.798 30.1788 11.6532 30.8335L11.6576 31.8426C10.7295 31.9716 9.22114 32.227 8.34802 32.6163C7.68408 32.9124 7.16522 33.4147 6.84587 34.0331C5.66337 32.6853 4.88039 31.0604 4.56992 29.2934C4.49989 28.895 4.11684 28.6281 3.71445 28.6974C3.31196 28.7667 3.04252 29.146 3.11255 29.5445C3.51612 31.8408 4.61213 33.9287 6.28223 35.5825C10.7469 40.0036 17.9797 39.9649 22.4051 35.5827ZM12.554 21.6354H16.1245C16.3086 21.6354 16.4583 21.7836 16.4583 21.9658C16.4583 22.5676 16.9527 23.0572 17.5604 23.0572H17.5966C17.7806 23.0572 17.9304 23.2054 17.9304 23.3876V23.7807L17.0363 23.6977C16.1605 23.6165 15.2648 23.8222 14.5145 24.2772C14.1029 24.5267 13.6303 24.6586 13.1478 24.6586H10.6953V23.4761C10.6952 22.4611 11.529 21.6354 12.554 21.6354ZM10.6952 26.7612V26.1232H13.1477C13.9031 26.1232 14.6428 25.9166 15.287 25.526C15.7663 25.2353 16.3386 25.1038 16.8981 25.1558L17.9307 25.2517C17.9312 25.7028 17.9324 26.2979 17.935 26.7584C17.5232 26.83 17.2028 27.1737 17.1777 27.5994C17.0896 29.0969 15.8311 30.2699 14.3127 30.2699C12.7975 30.2699 11.5371 29.0979 11.4433 27.6016C11.4169 27.1799 11.1014 26.8384 10.6952 26.7612ZM14.3127 31.7346C14.6925 31.7346 15.0613 31.6852 15.4134 31.5941L15.4151 32.0025C15.4159 32.1919 15.4598 32.3727 15.5375 32.5352C15.1698 32.7809 14.7341 32.9165 14.2774 32.9178C14.2751 32.9178 14.2729 32.9178 14.2706 32.9178C13.8181 32.9178 13.3857 32.7859 13.0193 32.5454C13.0956 32.3822 13.1384 32.2013 13.1376 32.0119L13.1357 31.574C13.5107 31.6786 13.9056 31.7346 14.3127 31.7346ZM8.00402 35.1568C8.11142 34.6209 8.4569 34.1744 8.95535 33.9519C9.45853 33.7276 10.4277 33.5023 11.6483 33.3238C12.3456 34.0014 13.2792 34.3825 14.2703 34.3825H14.2816C15.28 34.3795 16.2187 33.9903 16.9152 33.3018C18.1374 33.4702 19.1084 33.6873 19.6135 33.9075C20.1795 34.1541 20.5454 34.6241 20.635 35.1967C16.9748 38.1735 11.6495 38.1599 8.00402 35.1568Z" fill="#1CAF57"/>
</svg>
