<svg width="50" height="50" viewBox="0 0 50 50" fill="none" xmlns="http://www.w3.org/2000/svg">
<rect opacity="0.1" width="50" height="50" rx="6" fill="#1CAF57"/>
<path d="M34 23C34 30 25 36 25 36C25 36 16 30 16 23C16 20.6131 16.9482 18.3239 18.636 16.636C20.3239 14.9482 22.6131 14 25 14C27.3869 14 29.6761 14.9482 31.364 16.636C33.0518 18.3239 34 20.6131 34 23Z" stroke="#1CAF57" stroke-width="1.5" stroke-linecap="round" stroke-linejoin="round"/>
<path d="M25 26C26.6569 26 28 24.6569 28 23C28 21.3431 26.6569 20 25 20C23.3431 20 22 21.3431 22 23C22 24.6569 23.3431 26 25 26Z" stroke="#1CAF57" stroke-width="1.5" stroke-linecap="round" stroke-linejoin="round"/>
</svg>
