<svg width="16" height="18" viewBox="0 0 16 18" fill="none" xmlns="http://www.w3.org/2000/svg">
<path d="M3.58143 15.7501H0.264286V5.2349H3.58143V15.7501ZM1.92107 3.80053C0.860357 3.80053 0 2.93568 0 1.89154C7.59214e-09 1.39 0.202398 0.909006 0.562669 0.554365C0.92294 0.199724 1.41157 0.000488281 1.92107 0.000488281C2.43057 0.000488281 2.9192 0.199724 3.27947 0.554365C3.63974 0.909006 3.84214 1.39 3.84214 1.89154C3.84214 2.93568 2.98143 3.80053 1.92107 3.80053ZM15.9964 15.7501H12.6864V10.6314C12.6864 9.41146 12.6614 7.84701 10.9618 7.84701C9.23714 7.84701 8.97286 9.1724 8.97286 10.5435V15.7501H5.65929V5.2349H8.84071V6.66927H8.88714C9.33 5.8431 10.4118 4.97123 12.0257 4.97123C15.3829 4.97123 16 7.1474 16 9.97396V15.7501H15.9964Z" fill="white"/>
</svg>
