<svg width="146" height="33" viewBox="0 0 146 33" fill="none" xmlns="http://www.w3.org/2000/svg">
<path d="M7.128 13.576L13.24 22.92L19.384 13.576L20.728 25H26.424L22.808 1.48L13.24 15.144L3.704 1.48L0.0880001 25H5.784L7.128 13.576ZM36.876 25.32C38.7533 25.32 40.3427 24.9573 41.644 24.232C42.9667 23.5067 44.012 22.4187 44.78 20.968L40.46 19.912C40.0973 20.552 39.6067 21.032 38.988 21.352C38.3907 21.672 37.6653 21.832 36.812 21.832C36.0653 21.832 35.436 21.672 34.924 21.352C34.412 21.0107 34.028 20.52 33.772 19.88C33.516 19.24 33.388 18.472 33.388 17.576C33.4093 16.5947 33.5373 15.784 33.772 15.144C34.028 14.4827 34.4013 13.992 34.892 13.672C35.3827 13.352 35.9907 13.192 36.716 13.192C37.292 13.192 37.7933 13.32 38.22 13.576C38.6467 13.832 38.9773 14.1947 39.212 14.664C39.4467 15.1333 39.564 15.688 39.564 16.328C39.564 16.4773 39.5213 16.6693 39.436 16.904C39.372 17.1173 39.2867 17.2987 39.18 17.448L40.332 15.976H31.244V18.664H44.684C44.7267 18.5147 44.748 18.3333 44.748 18.12C44.748 17.8853 44.748 17.6507 44.748 17.416C44.748 15.8373 44.4387 14.4933 43.82 13.384C43.2013 12.2747 42.3053 11.432 41.132 10.856C39.9587 10.2587 38.5187 9.96 36.812 9.96C35.1053 9.96 33.6227 10.2693 32.364 10.888C31.1267 11.5067 30.1773 12.392 29.516 13.544C28.8547 14.696 28.524 16.0613 28.524 17.64C28.524 19.1973 28.8653 20.552 29.548 21.704C30.2307 22.856 31.1907 23.752 32.428 24.392C33.6867 25.0107 35.1693 25.32 36.876 25.32ZM46.0038 10.28V14.28H55.8598V10.28H46.0038ZM48.5958 5.16V25H53.2358V5.16H48.5958ZM61.6633 20.392C61.6633 20.0293 61.7486 19.7307 61.9193 19.496C62.0899 19.24 62.3459 19.048 62.6873 18.92C63.0286 18.792 63.4873 18.728 64.0633 18.728C64.8099 18.728 65.5139 18.8347 66.1753 19.048C66.8579 19.24 67.4553 19.528 67.9673 19.912V17.768C67.7113 17.4907 67.3273 17.224 66.8153 16.968C66.3033 16.712 65.6846 16.4987 64.9593 16.328C64.2553 16.1573 63.4553 16.072 62.5593 16.072C60.7246 16.072 59.3059 16.488 58.3033 17.32C57.3006 18.1307 56.7993 19.24 56.7993 20.648C56.7993 21.6507 57.0339 22.504 57.5033 23.208C57.9939 23.912 58.6339 24.4453 59.4233 24.808C60.2339 25.1493 61.1086 25.32 62.0473 25.32C62.9859 25.32 63.8606 25.16 64.6713 24.84C65.4819 24.4987 66.1433 24.008 66.6553 23.368C67.1673 22.7067 67.4233 21.9067 67.4233 20.968L66.9113 19.048C66.9113 19.7307 66.7619 20.3067 66.4633 20.776C66.1646 21.2453 65.7806 21.5973 65.3113 21.832C64.8419 22.0667 64.3299 22.184 63.7753 22.184C63.3913 22.184 63.0393 22.12 62.7193 21.992C62.3993 21.8427 62.1433 21.64 61.9513 21.384C61.7593 21.1067 61.6633 20.776 61.6633 20.392ZM59.5193 14.792C59.7326 14.664 60.0739 14.504 60.5433 14.312C61.0126 14.0987 61.5566 13.9173 62.1753 13.768C62.8153 13.6187 63.4659 13.544 64.1273 13.544C64.5753 13.544 64.9699 13.5867 65.3113 13.672C65.6739 13.7573 65.9726 13.896 66.2073 14.088C66.4419 14.28 66.6126 14.5147 66.7193 14.792C66.8473 15.048 66.9113 15.3573 66.9113 15.72V25H71.5513V14.632C71.5513 13.608 71.2526 12.744 70.6553 12.04C70.0579 11.336 69.2473 10.8027 68.2233 10.44C67.1993 10.056 66.0366 9.864 64.7353 9.864C63.3486 9.864 62.0686 10.0453 60.8953 10.408C59.7219 10.7707 58.7193 11.1547 57.8873 11.56L59.5193 14.792Z" fill="black"/>
<path d="M80.571 27.048L77.627 30.824C78.075 31.1227 78.6083 31.4 79.227 31.656C79.8457 31.9333 80.539 32.168 81.307 32.36C82.075 32.552 82.875 32.648 83.707 32.648C84.6883 32.648 85.627 32.5307 86.523 32.296C87.419 32.0827 88.2083 31.7413 88.891 31.272C89.5737 30.824 90.107 30.216 90.491 29.448C90.875 28.7013 91.067 27.7947 91.067 26.728V2.6H85.243V25.512C85.243 26.4507 85.019 27.112 84.571 27.496C84.123 27.9013 83.6537 28.104 83.163 28.104C82.6937 28.104 82.2243 27.9973 81.755 27.784C81.2857 27.5707 80.891 27.3253 80.571 27.048ZM94.4615 17.64C94.4615 19.176 94.8242 20.52 95.5495 21.672C96.2748 22.824 97.2775 23.72 98.5575 24.36C99.8375 25 101.278 25.32 102.878 25.32C104.478 25.32 105.907 25 107.166 24.36C108.446 23.72 109.448 22.824 110.174 21.672C110.92 20.52 111.294 19.176 111.294 17.64C111.294 16.0827 110.92 14.728 110.174 13.576C109.448 12.424 108.446 11.528 107.166 10.888C105.907 10.248 104.478 9.928 102.878 9.928C101.278 9.928 99.8375 10.248 98.5575 10.888C97.2775 11.528 96.2748 12.424 95.5495 13.576C94.8242 14.728 94.4615 16.0827 94.4615 17.64ZM99.4215 17.64C99.4215 16.872 99.5815 16.2107 99.9015 15.656C100.222 15.1013 100.638 14.6747 101.15 14.376C101.662 14.0773 102.238 13.928 102.878 13.928C103.496 13.928 104.062 14.0773 104.574 14.376C105.107 14.6747 105.523 15.1013 105.822 15.656C106.142 16.2107 106.302 16.872 106.302 17.64C106.302 18.408 106.142 19.0693 105.822 19.624C105.523 20.1573 105.107 20.5733 104.574 20.872C104.062 21.1707 103.496 21.32 102.878 21.32C102.238 21.32 101.662 21.1707 101.15 20.872C100.638 20.5733 100.222 20.1573 99.9015 19.624C99.5815 19.0693 99.4215 18.408 99.4215 17.64ZM118.969 0.039999H114.137V25H118.969V0.039999ZM131.001 17.64C131.001 15.976 130.66 14.5787 129.977 13.448C129.316 12.3173 128.452 11.4533 127.385 10.856C126.34 10.2587 125.209 9.96 123.993 9.96C122.777 9.96 121.689 10.2693 120.729 10.888C119.769 11.5067 119.012 12.392 118.457 13.544C117.903 14.6747 117.625 16.04 117.625 17.64C117.625 19.2187 117.903 20.584 118.457 21.736C119.012 22.888 119.769 23.7733 120.729 24.392C121.689 25.0107 122.777 25.32 123.993 25.32C125.209 25.32 126.34 25.0213 127.385 24.424C128.452 23.8267 129.316 22.9627 129.977 21.832C130.66 20.68 131.001 19.2827 131.001 17.64ZM125.913 17.64C125.913 18.408 125.753 19.08 125.433 19.656C125.113 20.2107 124.687 20.648 124.153 20.968C123.62 21.2667 123.033 21.416 122.393 21.416C121.839 21.416 121.295 21.2667 120.761 20.968C120.249 20.6693 119.823 20.2427 119.481 19.688C119.14 19.112 118.969 18.4293 118.969 17.64C118.969 16.8507 119.14 16.1787 119.481 15.624C119.823 15.048 120.249 14.6107 120.761 14.312C121.295 14.0133 121.839 13.864 122.393 13.864C123.033 13.864 123.62 14.024 124.153 14.344C124.687 14.6427 125.113 15.08 125.433 15.656C125.753 16.2107 125.913 16.872 125.913 17.64ZM134.719 19.656L132.703 22.856C133.365 23.368 134.079 23.8373 134.847 24.264C135.615 24.6693 136.447 24.9893 137.343 25.224C138.261 25.48 139.242 25.608 140.287 25.608C142.058 25.608 143.423 25.2133 144.383 24.424C145.365 23.6133 145.855 22.4187 145.855 20.84C145.855 19.9227 145.653 19.1867 145.247 18.632C144.863 18.0773 144.341 17.6187 143.679 17.256C143.039 16.8933 142.335 16.5733 141.567 16.296C140.842 16.0187 140.223 15.7947 139.711 15.624C139.221 15.432 138.837 15.2293 138.559 15.016C138.303 14.8027 138.175 14.536 138.175 14.216C138.175 13.9387 138.282 13.7147 138.495 13.544C138.73 13.3733 139.071 13.288 139.519 13.288C140.181 13.288 140.906 13.48 141.695 13.864C142.485 14.2267 143.189 14.696 143.807 15.272L145.535 12.136C144.959 11.7093 144.341 11.336 143.679 11.016C143.039 10.696 142.346 10.44 141.599 10.248C140.874 10.056 140.085 9.96 139.231 9.96C138.165 9.96 137.215 10.12 136.383 10.44C135.573 10.76 134.922 11.2293 134.431 11.848C133.962 12.4667 133.727 13.224 133.727 14.12C133.727 15.0587 133.93 15.8267 134.335 16.424C134.741 17.0213 135.253 17.5013 135.871 17.864C136.511 18.2053 137.183 18.504 137.887 18.76C138.677 18.9947 139.295 19.2187 139.743 19.432C140.213 19.6453 140.543 19.8693 140.735 20.104C140.927 20.3173 141.023 20.584 141.023 20.904C141.023 21.2453 140.906 21.5227 140.671 21.736C140.437 21.9493 140.074 22.056 139.583 22.056C139.242 22.056 138.837 21.992 138.367 21.864C137.898 21.7147 137.354 21.4693 136.735 21.128C136.138 20.7653 135.466 20.2747 134.719 19.656Z" fill="#1CAF57"/>
</svg>
