<svg width="60" height="60" viewBox="0 0 60 60" fill="none" xmlns="http://www.w3.org/2000/svg">
<rect opacity="0.1" width="60" height="60" rx="12" fill="#1CAF57"/>
<path d="M22.793 27.0703H26.4844C26.808 27.0703 27.0703 26.808 27.0703 26.4844C27.0703 26.1608 26.808 25.8984 26.4844 25.8984H22.793C22.4694 25.8984 22.207 26.1608 22.207 26.4844C22.207 26.808 22.4694 27.0703 22.793 27.0703Z" fill="#1CAF57"/>
<path d="M22.793 30.5859H26.4844C26.808 30.5859 27.0703 30.3236 27.0703 30C27.0703 29.6764 26.808 29.4141 26.4844 29.4141H22.793C22.4694 29.4141 22.207 29.6764 22.207 30C22.207 30.3236 22.4694 30.5859 22.793 30.5859Z" fill="#1CAF57"/>
<path d="M22.793 34.1016H26.4844C26.808 34.1016 27.0703 33.8392 27.0703 33.5156C27.0703 33.192 26.808 32.9297 26.4844 32.9297H22.793C22.4694 32.9297 22.207 33.192 22.207 33.5156C22.207 33.8392 22.4694 34.1016 22.793 34.1016Z" fill="#1CAF57"/>
<path d="M37.207 25.8984H33.5156C33.192 25.8984 32.9297 26.1608 32.9297 26.4844C32.9297 26.808 33.192 27.0703 33.5156 27.0703H37.207C37.5306 27.0703 37.793 26.808 37.793 26.4844C37.793 26.1608 37.5306 25.8984 37.207 25.8984Z" fill="#1CAF57"/>
<path d="M37.207 29.4141H33.5156C33.192 29.4141 32.9297 29.6764 32.9297 30C32.9297 30.3236 33.192 30.5859 33.5156 30.5859H37.207C37.5306 30.5859 37.793 30.3236 37.793 30C37.793 29.6764 37.5306 29.4141 37.207 29.4141Z" fill="#1CAF57"/>
<path d="M37.207 41.1328C37.5306 41.1328 37.793 40.8705 37.793 40.5469C37.793 40.2233 37.5306 39.9609 37.207 39.9609C36.8834 39.9609 36.6211 40.2233 36.6211 40.5469C36.6211 40.8705 36.8834 41.1328 37.207 41.1328Z" fill="#1CAF57"/>
<path d="M44.4141 20.625H41.3086V19.4531C41.3086 19.1295 41.0463 18.8672 40.7227 18.8672H34.2439C32.673 18.8672 31.1861 19.4132 30 20.4155C28.8138 19.4132 27.327 18.8672 25.7561 18.8672H19.2773C18.9537 18.8672 18.6914 19.1295 18.6914 19.4531V20.625H15.5859C15.2623 20.625 15 20.8873 15 21.2109V40.5469C15 40.8705 15.2623 41.1328 15.5859 41.1328H34.5703C34.8939 41.1328 35.1562 40.8705 35.1562 40.5469C35.1562 40.2233 34.8939 39.9609 34.5703 39.9609H30.5859V39.039C31.5869 38.1203 32.8767 37.6172 34.2439 37.6172H40.7227C41.0463 37.6172 41.3086 37.3549 41.3086 37.0312V21.7969H43.8281V39.9609H39.8438C39.5201 39.9609 39.2578 40.2233 39.2578 40.5469C39.2578 40.8705 39.5201 41.1328 39.8438 41.1328H44.4141C44.7377 41.1328 45 40.8705 45 40.5469V21.2109C45 20.8873 44.7377 20.625 44.4141 20.625ZM19.8633 20.0391H25.7561C27.1233 20.0391 28.4131 20.5421 29.4141 21.4608V37.5517C28.3403 36.832 27.0779 36.4453 25.7561 36.4453H19.8633V20.0391ZM16.1719 39.9609V21.7969H18.6914V37.0312C18.6914 37.3549 18.9537 37.6172 19.2773 37.6172H25.7561C27.1233 37.6172 28.4131 38.1203 29.4141 39.039V39.9609H16.1719ZM40.1367 36.4453H34.2439C32.9221 36.4453 31.6597 36.832 30.5859 37.5517V21.4608C31.5869 20.5421 32.8767 20.0391 34.2439 20.0391H40.1367V36.4453Z" fill="#1CAF57"/>
</svg>
