<svg width="60" height="60" viewBox="0 0 60 60" fill="none" xmlns="http://www.w3.org/2000/svg">
<rect opacity="0.1" width="60" height="60" rx="12" fill="#1CAF57"/>
<g clip-path="url(#clip0_332_7)">
<path d="M44.7398 36.8273L41.6648 35.2898L39.7077 30.1992C39.6847 30.139 39.6495 30.0842 39.6043 30.0382C39.5592 29.9923 39.505 29.9561 39.4452 29.932L27.3023 25.0781C27.2174 25.0443 27.1244 25.0361 27.0349 25.0544C26.9454 25.0727 26.8632 25.1168 26.7984 25.1812L25.1788 26.8008C25.1153 26.8656 25.0719 26.9475 25.054 27.0366C25.0361 27.1256 25.0445 27.2179 25.0781 27.3023L29.932 39.4453C29.9561 39.5051 29.9922 39.5592 30.0382 39.6044C30.0842 39.6496 30.139 39.6848 30.1991 39.7078L35.2898 41.6648L36.8273 44.7398C36.8596 44.8076 36.9078 44.8666 36.9678 44.9119C37.0278 44.9572 37.0977 44.9874 37.1718 45C37.1967 45.0023 37.2218 45.0023 37.2468 45C37.3709 44.9995 37.4898 44.9497 37.5773 44.8617L44.8616 37.5773C44.9152 37.5256 44.9558 37.4618 44.9798 37.3913C45.0039 37.3208 45.0107 37.2456 44.9999 37.1719C44.9873 37.0978 44.9571 37.0278 44.9119 36.9679C44.8666 36.9079 44.8076 36.8597 44.7398 36.8273ZM26.0601 27.2414L26.3202 26.9836L32.3648 33.0281C31.9664 33.5926 31.7944 34.286 31.8826 34.9712C31.9709 35.6564 32.3131 36.2836 32.8415 36.7286C33.37 37.1737 34.0462 37.4043 34.7364 37.3748C35.4267 37.3453 36.0807 37.0578 36.5692 36.5693C37.0578 36.0808 37.3452 35.4267 37.3747 34.7365C37.4042 34.0462 37.1736 33.37 36.7286 32.8416C36.2835 32.3132 35.6563 31.971 34.9711 31.8827C34.2859 31.7944 33.5925 31.9665 33.028 32.3648L26.9835 26.3203L27.2413 26.0601L38.9062 30.7265L40.746 35.5125L35.5124 40.7461L30.7265 38.9062L26.0601 27.2414ZM34.6171 32.7961C35.0384 32.7967 35.4464 32.9434 35.7717 33.2111C36.097 33.4788 36.3194 33.851 36.401 34.2643C36.4826 34.6777 36.4184 35.1065 36.2193 35.4777C36.0202 35.849 35.6986 36.1398 35.3092 36.3005C34.9197 36.4612 34.4866 36.482 34.0836 36.3592C33.6806 36.2364 33.3327 35.9777 33.099 35.6272C32.8654 35.2766 32.7605 34.8559 32.8023 34.4367C32.844 34.0175 33.0298 33.6257 33.328 33.3281C33.6703 32.987 34.1339 32.7956 34.6171 32.7961ZM37.3757 43.739L36.2038 41.3953L41.3905 36.2086L43.7343 37.3804L37.3757 43.739Z" fill="#1CAF57"/>
<path d="M23.9648 40.0781C23.8752 39.9934 23.7565 39.9462 23.6332 39.9462C23.5098 39.9462 23.3912 39.9934 23.3015 40.0781L22.7062 40.6735C21.1176 38.5173 20.2412 35.9193 20.1992 33.2414C20.1572 30.5636 20.9516 27.9393 22.4718 25.7344C22.9273 25.985 23.4517 26.0813 23.9665 26.0088C24.4813 25.9363 24.9587 25.6989 25.3272 25.3322C25.6957 24.9656 25.9355 24.4893 26.0106 23.9749C26.0857 23.4605 25.9921 22.9356 25.7437 22.4789C27.9486 20.9587 30.5729 20.1642 33.2507 20.2062C35.9286 20.2483 38.5266 21.1247 40.6828 22.7133L40.0781 23.3016C39.9909 23.3895 39.9421 23.5083 39.9422 23.632C39.9418 23.6937 39.9536 23.7549 39.977 23.812C40.0003 23.8691 40.0347 23.9211 40.0781 23.9649L42.1453 26.0156C42.2331 26.1029 42.3519 26.1519 42.4758 26.1519C42.5996 26.1519 42.7184 26.1029 42.8062 26.0156L44.8617 23.9602C44.9053 23.9166 44.9398 23.8649 44.9634 23.808C44.987 23.7511 44.9992 23.6901 44.9992 23.6285C44.9992 23.5669 44.987 23.5059 44.9634 23.449C44.9398 23.3921 44.9053 23.3404 44.8617 23.2969L42.8062 21.2414C42.7184 21.1541 42.5996 21.1051 42.4758 21.1051C42.3519 21.1051 42.2331 21.1541 42.1453 21.2414L41.3508 22.0313C39.3926 20.5577 37.0775 19.632 34.6432 19.349C32.2089 19.066 29.7432 19.4361 27.4992 20.4211L30.2015 17.7258C30.5079 17.8722 30.8563 17.9053 31.1848 17.8193C31.5133 17.7333 31.8008 17.5337 31.9961 17.256C32.1915 16.9782 32.2821 16.6402 32.252 16.3019C32.2219 15.9637 32.0729 15.6471 31.8315 15.4082C31.5901 15.1693 31.2719 15.0237 30.9334 14.9971C30.5948 14.9706 30.2578 15.0648 29.9821 15.2631C29.7064 15.4613 29.5099 15.7509 29.4273 16.0803C29.3448 16.4097 29.3816 16.7577 29.5312 17.0625L24.9703 21.6305C24.5072 21.3198 23.9506 21.1796 23.3956 21.2338C22.8406 21.2879 22.3217 21.5331 21.9274 21.9274C21.5331 22.3217 21.2879 22.8407 21.2337 23.3957C21.1796 23.9507 21.3198 24.5072 21.6304 24.9703L17.0625 29.5313C16.7564 29.3821 16.4074 29.3463 16.0775 29.4302C15.7476 29.5141 15.458 29.7123 15.2604 29.9895C15.0627 30.2667 14.9698 30.6049 14.998 30.9442C15.0262 31.2835 15.1738 31.6018 15.4145 31.8425C15.6553 32.0832 15.9735 32.2308 16.3128 32.259C16.6521 32.2872 16.9904 32.1943 17.2676 31.9966C17.5448 31.799 17.7429 31.5095 17.8268 31.1795C17.9107 30.8496 17.8749 30.5006 17.7258 30.1945L20.4281 27.4992C19.4421 29.7426 19.0709 32.208 19.3526 34.6423C19.6343 37.0765 20.5588 39.3919 22.0312 41.3508L21.239 42.1453C21.1517 42.2332 21.1027 42.352 21.1027 42.4758C21.1027 42.5996 21.1517 42.7184 21.239 42.8063L23.2945 44.8617C23.382 44.9498 23.5009 44.9995 23.625 45C23.6868 45.0001 23.7481 44.9879 23.8052 44.9641C23.8623 44.9404 23.9142 44.9056 23.9578 44.8617L26.0156 42.8063C26.1029 42.7184 26.1519 42.5996 26.1519 42.4758C26.1519 42.352 26.1029 42.2332 26.0156 42.1453L23.9648 40.0781ZM42.4804 22.2305L43.8726 23.6227L42.4804 25.0149L41.0883 23.6227L42.4804 22.2305ZM30.4687 16.0852C30.5384 16.0149 30.6273 15.967 30.7243 15.9474C30.8212 15.9278 30.9218 15.9375 31.0133 15.9751C31.1047 16.0128 31.1829 16.0768 31.238 16.159C31.293 16.2411 31.3224 16.3378 31.3224 16.4367C31.3224 16.5356 31.293 16.6323 31.238 16.7145C31.1829 16.7967 31.1047 16.8607 31.0133 16.8983C30.9218 16.936 30.8212 16.9456 30.7243 16.9261C30.6273 16.9065 30.5384 16.8585 30.4687 16.7883C30.4225 16.7421 30.3859 16.6873 30.3609 16.627C30.3358 16.5667 30.323 16.502 30.323 16.4367C30.323 16.3714 30.3358 16.3068 30.3609 16.2464C30.3859 16.1861 30.4225 16.1313 30.4687 16.0852ZM22.5937 22.5938C22.7298 22.457 22.8916 22.3485 23.0698 22.2744C23.248 22.2004 23.439 22.1622 23.632 22.1622C23.825 22.1622 24.016 22.2004 24.1942 22.2744C24.3724 22.3485 24.5342 22.457 24.6703 22.5938C24.876 22.7992 25.0162 23.061 25.0731 23.3462C25.13 23.6313 25.1011 23.9269 24.9899 24.1955C24.8787 24.4642 24.6904 24.6938 24.4487 24.8554C24.207 25.017 23.9228 25.1032 23.632 25.1032C23.3413 25.1032 23.057 25.017 22.8153 24.8554C22.5736 24.6938 22.3853 24.4642 22.2741 24.1955C22.163 23.9269 22.134 23.6313 22.1909 23.3462C22.2478 23.061 22.388 22.7992 22.5937 22.5938ZM16.7906 31.1719C16.6949 31.2517 16.5728 31.2928 16.4483 31.2872C16.3239 31.2816 16.206 31.2296 16.1179 31.1415C16.0298 31.0534 15.9778 30.9355 15.9722 30.811C15.9665 30.6865 16.0077 30.5645 16.0875 30.4688C16.1813 30.3766 16.3075 30.3249 16.439 30.3249C16.5706 30.3249 16.6968 30.3766 16.7906 30.4688C16.8368 30.5149 16.8735 30.5697 16.8985 30.63C16.9235 30.6904 16.9364 30.755 16.9364 30.8203C16.9364 30.8856 16.9235 30.9503 16.8985 31.0106C16.8735 31.0709 16.8368 31.1257 16.7906 31.1719ZM23.632 43.8586L22.2398 42.4664L23.632 41.0742L25.0242 42.4664L23.632 43.8586Z" fill="#1CAF57"/>
</g>
<defs>
<clipPath id="clip0_332_7">
<rect width="30" height="30" fill="white" transform="translate(15 15)"/>
</clipPath>
</defs>
</svg>
