<svg width="60" height="60" viewBox="0 0 60 60" fill="none" xmlns="http://www.w3.org/2000/svg">
<rect opacity="0.1" width="60" height="60" rx="12" fill="#1CAF57"/>
<path d="M43.72 41.755C45.4031 38.8316 45.4031 35.2334 43.72 32.31C43.7185 32.2934 43.7185 32.2766 43.72 32.26L43.675 32.215C42.8534 30.8138 41.6862 29.6466 40.285 28.825C40.2725 28.8091 40.2573 28.7956 40.24 28.785H40.195C38.1451 27.61 35.727 27.2529 33.425 27.785C34.3905 25.1538 34.1415 22.2301 32.745 19.8C32.7435 19.7834 32.7435 19.7667 32.745 19.75L32.7 19.705C31.8784 18.3038 30.7112 17.1366 29.31 16.315C29.2975 16.2991 29.2823 16.2856 29.265 16.275H29.22C26.3066 14.6013 22.7234 14.6013 19.81 16.275H19.765C19.7477 16.2856 19.7325 16.2991 19.72 16.315C18.3133 17.1346 17.1408 18.3019 16.315 19.705L16.27 19.75C16.2715 19.7667 16.2715 19.7834 16.27 19.8C14.597 22.71 14.597 26.29 16.27 29.2C16.2715 29.2166 16.2715 29.2334 16.27 29.25C16.2889 29.2789 16.3106 29.3057 16.335 29.33C17.1557 30.716 18.3154 31.8705 19.705 32.685C19.7175 32.7009 19.7327 32.7145 19.75 32.725C19.7707 32.7371 19.7924 32.7471 19.815 32.755C21.2413 33.5716 22.8565 34.0008 24.5 34C25.1998 33.9968 25.8971 33.918 26.58 33.765C26.1976 34.8008 26.0012 35.8959 26 37C26 38.6657 26.438 40.302 27.27 41.745C27.7547 42.5861 28.367 43.3468 29.085 44H27.5C27.2239 44 27 44.2239 27 44.5C27 44.7761 27.2239 45 27.5 45H43.5C43.7762 45 44 44.7761 44 44.5C44 44.2239 43.7762 44 43.5 44H41.915C42.6287 43.3491 43.2375 42.5918 43.72 41.755ZM25 33V32.5C25 32.2239 24.7761 32 24.5 32C24.2239 32 24 32.2239 24 32.5V33C22.8495 32.9336 21.7247 32.6324 20.695 32.115L20.935 31.705C21.0731 31.4648 20.9902 31.1581 20.75 31.02C20.5098 30.8819 20.2031 30.9648 20.065 31.205L19.825 31.62C18.864 30.984 18.041 30.161 17.405 29.2L17.82 28.96C18.0602 28.8219 18.1431 28.5153 18.005 28.275C17.8669 28.0348 17.5602 27.9519 17.32 28.09L16.91 28.33C16.3893 27.2926 16.088 26.159 16.025 25H16.5C16.7761 25 17 24.7762 17 24.5C17 24.2239 16.7761 24 16.5 24H16C16.0664 22.8495 16.3676 21.7248 16.885 20.695L17.295 20.935C17.5352 21.0731 17.8419 20.9903 17.98 20.75C18.1181 20.5098 18.0352 20.2031 17.795 20.065L17.38 19.825C18.0233 18.8616 18.855 18.0384 19.825 17.405L20.065 17.82C20.2031 18.0603 20.5098 18.1431 20.75 18.005C20.9902 17.867 21.0731 17.5603 20.935 17.32L20.695 16.91C21.7247 16.3926 22.8495 16.0914 24 16.025V16.5C24 16.7762 24.2239 17 24.5 17C24.7761 17 25 16.7762 25 16.5V16C26.1505 16.0664 27.2753 16.3676 28.305 16.885L28.065 17.295C27.9269 17.5353 28.0098 17.842 28.25 17.98C28.4902 18.1181 28.7969 18.0353 28.935 17.795L29.175 17.38C30.136 18.016 30.959 18.839 31.595 19.8L31.18 20.04C30.9398 20.1781 30.8569 20.4848 30.995 20.725C31.1331 20.9653 31.4398 21.0481 31.68 20.91L32.09 20.67C32.6194 21.7055 32.9292 22.8392 33 24H32.5C32.2239 24 32 24.2239 32 24.5C32 24.7762 32.2239 25 32.5 25H32.97C32.9143 26.0781 32.6476 27.1347 32.185 28.11C31.7059 28.2891 31.2412 28.5048 30.795 28.755H30.75C30.7327 28.7656 30.7175 28.7791 30.705 28.795C29.3038 29.6166 28.1366 30.7838 27.315 32.185L27.27 32.23C27.2715 32.2466 27.2715 32.2634 27.27 32.28C27.215 32.375 27.16 32.47 27.11 32.57C26.4281 32.8036 25.7189 32.9481 25 33ZM30.69 44C29.7837 43.3802 29.006 42.5906 28.4 41.675L28.82 41.435C29.0602 41.2969 29.1431 40.9903 29.005 40.75C28.8669 40.5098 28.5602 40.4269 28.32 40.565L27.9 40.81C27.3782 39.7793 27.0719 38.653 27 37.5H27.5C27.7761 37.5 28 37.2762 28 37C28 36.7239 27.7761 36.5 27.5 36.5H27.025C27.0914 35.3495 27.3926 34.2248 27.91 33.195L28.32 33.435C28.5602 33.5731 28.8669 33.4903 29.005 33.25C29.1431 33.0098 29.0602 32.7031 28.82 32.565L28.405 32.325C29.041 31.364 29.864 30.541 30.825 29.905L31.065 30.32C31.2031 30.5603 31.5098 30.6431 31.75 30.505C31.9902 30.3669 32.0731 30.0603 31.935 29.82L31.695 29.41C32.7247 28.8926 33.8495 28.5914 35 28.525V29C35 29.2762 35.2239 29.5 35.5 29.5C35.7761 29.5 36 29.2762 36 29V28.525C37.1505 28.5914 38.2753 28.8926 39.305 29.41L39.065 29.82C38.9269 30.0603 39.0098 30.3669 39.25 30.505C39.4903 30.6431 39.7969 30.5603 39.935 30.32L40.175 29.905C41.136 30.541 41.959 31.364 42.595 32.325L42.18 32.565C41.9398 32.7031 41.8569 33.0098 41.995 33.25C42.1331 33.4903 42.4398 33.5731 42.68 33.435L43.09 33.195C43.6161 34.2229 43.9258 35.3477 44 36.5H43.5C43.2239 36.5 43 36.7239 43 37C43 37.2762 43.2239 37.5 43.5 37.5H44C43.9327 38.652 43.6316 39.7782 43.115 40.81L42.695 40.565C42.5396 40.4757 42.3483 40.4761 42.1933 40.566C42.0382 40.6559 41.9429 40.8218 41.9433 41.001C41.9436 41.1802 42.0396 41.3457 42.195 41.435L42.615 41.675C42.0046 42.5921 41.2217 43.3817 40.31 44H30.69Z" fill="#1CAF57"/>
<path d="M35.5 31.0001C32.1863 31.0001 29.5 33.6864 29.5 37.0001C29.5 40.3138 32.1863 43.0001 35.5 43.0001C38.8137 43.0001 41.5 40.3138 41.5 37.0001C41.5 33.6864 38.8137 31.0001 35.5 31.0001ZM40.075 35.0001L37.18 35.9401C36.911 35.5112 36.4893 35.2002 36 35.0701V32.0251C37.7958 32.2084 39.3533 33.3455 40.075 35.0001ZM34.5 37.0001C34.5 36.4478 34.9477 36.0001 35.5 36.0001C36.0523 36.0001 36.5 36.4478 36.5 37.0001C36.5 37.5523 36.0523 38.0001 35.5 38.0001C34.9477 38.0001 34.5 37.5523 34.5 37.0001ZM35 32.0001V35.0451C34.5123 35.1728 34.0909 35.4799 33.82 35.9051L30.925 35.0001C31.6467 33.3455 33.2042 32.2084 35 32.0251V32.0001ZM30.5 37.0001C30.4998 36.6436 30.5384 36.2882 30.615 35.9401L33.5 36.8801V37.0001C33.504 37.4628 33.6683 37.9099 33.965 38.2651L32.175 40.7251C31.1119 39.7784 30.5026 38.4236 30.5 37.0001ZM33 41.3151L34.785 38.8551C35.2525 39.0484 35.7775 39.0484 36.245 38.8551L38 41.3151C36.4477 42.2283 34.5223 42.2283 32.97 41.3151H33ZM38.84 40.7251L37.05 38.2651C37.3413 37.9078 37.5003 37.461 37.5 37.0001C37.5 36.9601 37.5 36.9201 37.5 36.8801L40.395 35.9401C40.4683 36.2886 40.5035 36.644 40.5 37.0001C40.4974 38.4236 39.8881 39.7784 38.825 40.7251H38.84Z" fill="#1CAF57"/>
<path d="M30.5 24.5C30.5 21.1863 27.8137 18.5 24.5 18.5C21.1863 18.5 18.5 21.1863 18.5 24.5C18.5 27.8137 21.1863 30.5 24.5 30.5C26.0913 30.5 27.6174 29.8679 28.7426 28.7427C29.8678 27.6174 30.5 26.0913 30.5 24.5ZM27.825 28.225L26.035 25.765C26.3317 25.4098 26.496 24.9628 26.5 24.5C26.5 24.46 26.5 24.42 26.5 24.38L29.395 23.44C29.4682 23.7885 29.5035 24.1439 29.5 24.5C29.4974 25.9235 28.8881 27.2784 27.825 28.225ZM23.5 24.5C23.5 23.9477 23.9477 23.5 24.5 23.5C25.0523 23.5 25.5 23.9477 25.5 24.5C25.5 25.0523 25.0523 25.5 24.5 25.5C23.9477 25.5 23.5 25.0523 23.5 24.5ZM29.075 22.5L26.18 23.44C25.911 23.0111 25.4893 22.7002 25 22.57V19.525C26.7958 19.7084 28.3533 20.8455 29.075 22.5ZM24 19.525V22.57C23.5123 22.6977 23.0909 23.0049 22.82 23.43L19.925 22.5C20.6467 20.8455 22.2042 19.7084 24 19.525ZM19.5 24.5C19.4998 24.1436 19.5384 23.7881 19.615 23.44L22.5 24.38V24.5C22.504 24.9628 22.6683 25.4098 22.965 25.765L21.175 28.225C20.1119 27.2784 19.5026 25.9235 19.5 24.5ZM22 28.815L23.785 26.355C24.2525 26.5484 24.7775 26.5484 25.245 26.355L27 28.815C25.4477 29.7282 23.5223 29.7282 21.97 28.815H22Z" fill="#1CAF57"/>
<path d="M37.5 19H36.5C36.2239 19 36 19.2239 36 19.5C36 19.7761 36.2239 20 36.5 20H37.5C39.433 20 41 21.567 41 23.5V24.295L40.355 23.645C40.2282 23.5182 40.0433 23.4686 39.8701 23.5151C39.6968 23.5615 39.5615 23.6968 39.5151 23.8701C39.4686 24.0433 39.5182 24.2282 39.645 24.355L41.145 25.855C41.2389 25.9497 41.3667 26.0029 41.5 26.0029C41.6333 26.0029 41.7611 25.9497 41.855 25.855L43.355 24.355C43.5511 24.1589 43.5511 23.8411 43.355 23.645C43.1589 23.4489 42.8411 23.4489 42.645 23.645L42 24.295V23.5C42 21.0147 39.9853 19 37.5 19Z" fill="#1CAF57"/>
<path d="M23.5 40H22.5C20.567 40 19 38.433 19 36.5V35.705L19.645 36.355C19.7389 36.4497 19.8667 36.5029 20 36.5029C20.1333 36.5029 20.2611 36.4497 20.355 36.355C20.4497 36.2611 20.5029 36.1334 20.5029 36C20.5029 35.8667 20.4497 35.7389 20.355 35.645L18.855 34.145C18.7611 34.0504 18.6333 33.9971 18.5 33.9971C18.3667 33.9971 18.2389 34.0504 18.145 34.145L16.645 35.645C16.4489 35.8411 16.4489 36.159 16.645 36.355C16.8411 36.5511 17.1589 36.5511 17.355 36.355L18 35.705V36.5C18 38.9853 20.0147 41 22.5 41H23.5C23.7761 41 24 40.7762 24 40.5C24 40.2239 23.7761 40 23.5 40Z" fill="#1CAF57"/>
</svg>
