<svg width="60" height="60" viewBox="0 0 60 60" fill="none" xmlns="http://www.w3.org/2000/svg">
<rect opacity="0.1" width="60" height="60" rx="12" fill="#1CAF57"/>
<path d="M30 26.1527C29.6021 26.1527 29.2131 26.0347 28.8822 25.8136C28.5513 25.5925 28.2934 25.2783 28.1411 24.9107C27.9888 24.543 27.949 24.1385 28.0266 23.7482C28.1043 23.3579 28.2959 22.9994 28.5773 22.718C28.8587 22.4366 29.2172 22.245 29.6075 22.1673C29.9978 22.0897 30.4023 22.1295 30.77 22.2818C31.1376 22.4341 31.4518 22.692 31.6729 23.0229C31.894 23.3537 32.012 23.7427 32.012 24.1407C32.0115 24.6741 31.7993 25.1856 31.4221 25.5628C31.0449 25.94 30.5335 26.1522 30 26.1527ZM30 22.9399C29.7624 22.9399 29.5301 23.0103 29.3326 23.1423C29.135 23.2744 28.9811 23.462 28.8902 23.6815C28.7993 23.901 28.7755 24.1426 28.8219 24.3756C28.8683 24.6086 28.9827 24.8226 29.1508 24.9906C29.3188 25.1586 29.5329 25.273 29.7659 25.3193C29.9989 25.3656 30.2405 25.3417 30.46 25.2508C30.6794 25.1598 30.867 25.0058 30.999 24.8082C31.1309 24.6106 31.2013 24.3783 31.2012 24.1407C31.2008 23.8223 31.0741 23.517 30.8489 23.2919C30.6237 23.0668 30.3184 22.9402 30 22.9399Z" fill="#1CAF57"/>
<path d="M23.2395 42.0429C23.0035 42.0426 22.7694 42.0015 22.5474 41.9213C22.0384 41.739 21.6225 41.362 21.3914 40.8732C21.1602 40.3843 21.1326 39.8237 21.3146 39.3146L26.0372 25.7335C26.0546 25.6831 26.0817 25.6366 26.1171 25.5967C26.1525 25.5568 26.1954 25.5242 26.2434 25.5009C26.2913 25.4776 26.3434 25.464 26.3967 25.4609C26.4499 25.4578 26.5032 25.4652 26.5536 25.4827C26.604 25.5002 26.6504 25.5275 26.6902 25.563C26.73 25.5985 26.7624 25.6415 26.7856 25.6895C26.8088 25.7376 26.8222 25.7897 26.8252 25.8429C26.8282 25.8962 26.8206 25.9495 26.803 25.9998L22.0792 39.5837C22.0242 39.7364 21.9999 39.8983 22.0077 40.0604C22.0155 40.2224 22.0552 40.3813 22.1246 40.5279C22.2282 40.748 22.3949 40.9323 22.6034 41.0575C22.812 41.1826 23.053 41.2431 23.2959 41.231C23.5389 41.219 23.7727 41.1351 23.9679 40.9899C24.163 40.8447 24.3107 40.6448 24.392 40.4156L28.7481 27.8858C28.7861 27.7879 28.8606 27.7085 28.9559 27.6645C29.0512 27.6204 29.1599 27.615 29.2591 27.6495C29.3583 27.684 29.4403 27.7556 29.4877 27.8493C29.5352 27.9429 29.5444 28.0514 29.5135 28.1517L25.157 40.6844C25.0168 41.0811 24.7571 41.4247 24.4138 41.6679C24.0704 41.9111 23.6602 42.0421 23.2395 42.0429Z" fill="#1CAF57"/>
<path d="M36.7613 42.043C36.3413 42.0418 35.9319 41.9112 35.5888 41.6689C35.2457 41.4266 34.9857 41.0844 34.8442 40.6889L30.4865 28.1518C30.4556 28.0514 30.4648 27.943 30.5123 27.8493C30.5597 27.7556 30.6417 27.684 30.7409 27.6495C30.8401 27.6151 30.9488 27.6204 31.0441 27.6645C31.1394 27.7086 31.2139 27.7879 31.2519 27.8858L35.6084 40.4189C35.7209 40.7225 35.9487 40.9695 36.2423 41.1061C36.5359 41.2428 36.8715 41.258 37.1763 41.1486C37.4811 41.0392 37.7304 40.8139 37.87 40.5218C38.0096 40.2296 38.0283 39.8941 37.922 39.5882L33.197 26.0072C33.1794 25.9568 33.1718 25.9035 33.1748 25.8503C33.1778 25.797 33.1912 25.7449 33.2144 25.6968C33.2376 25.6488 33.27 25.6058 33.3098 25.5703C33.3496 25.5348 33.396 25.5075 33.4464 25.49C33.4968 25.4725 33.5501 25.4651 33.6033 25.4682C33.6566 25.4714 33.7087 25.485 33.7566 25.5083C33.8046 25.5315 33.8475 25.5641 33.8829 25.604C33.9183 25.6439 33.9454 25.6904 33.9628 25.7408L38.6862 39.317C38.795 39.6252 38.8283 39.9549 38.7834 40.2786C38.7385 40.6023 38.6167 40.9105 38.4282 41.1774C38.2398 41.4444 37.99 41.6623 37.7 41.8129C37.41 41.9634 37.0881 42.0423 36.7613 42.043Z" fill="#1CAF57"/>
<path d="M38.2265 44.1891C38.1458 44.1891 38.0669 44.1651 37.9999 44.12C37.933 44.075 37.881 44.0109 37.8507 43.9361L36.9401 41.6926C36.9016 41.5934 36.9036 41.4829 36.9458 41.3852C36.9879 41.2874 37.0669 41.2102 37.1656 41.1701C37.2642 41.1301 37.3747 41.1305 37.473 41.1712C37.5714 41.2119 37.6498 41.2897 37.6913 41.3878L38.6023 43.6313C38.6273 43.6928 38.6367 43.7596 38.6299 43.8257C38.623 43.8917 38.6 43.9551 38.5628 44.0102C38.5257 44.0653 38.4756 44.1104 38.417 44.1416C38.3583 44.1728 38.2929 44.1891 38.2265 44.1891Z" fill="#1CAF57"/>
<path d="M21.7743 44.1891C21.7079 44.1891 21.6426 44.1727 21.5839 44.1415C21.5253 44.1103 21.4753 44.0652 21.4382 44.0101C21.4012 43.955 21.3782 43.8916 21.3713 43.8256C21.3645 43.7595 21.374 43.6928 21.3989 43.6313L22.3095 41.3878C22.3499 41.2881 22.4283 41.2086 22.5273 41.1667C22.6264 41.1248 22.738 41.124 22.8377 41.1644C22.9374 41.2048 23.0169 41.2832 23.0588 41.3822C23.1007 41.4813 23.1015 41.593 23.0611 41.6926L22.1501 43.9362C22.1198 44.0109 22.0678 44.075 22.0009 44.12C21.9339 44.1651 21.855 44.1892 21.7743 44.1891Z" fill="#1CAF57"/>
<path d="M30 28.5202C29.134 28.5202 28.2875 28.2634 27.5675 27.7823C26.8475 27.3012 26.2863 26.6174 25.9549 25.8173C25.6235 25.0173 25.5368 24.137 25.7057 23.2876C25.8747 22.4383 26.2917 21.6582 26.904 21.0458C27.5163 20.4335 28.2965 20.0165 29.1458 19.8476C29.9951 19.6786 30.8755 19.7653 31.6755 20.0967C32.4756 20.4281 33.1594 20.9893 33.6405 21.7093C34.1216 22.4293 34.3784 23.2758 34.3784 24.1418C34.3768 25.3025 33.915 26.4153 33.0942 27.236C32.2735 28.0568 31.1607 28.5186 30 28.5202ZM30 20.5722C29.2944 20.5722 28.6046 20.7814 28.018 21.1735C27.4313 21.5655 26.974 22.1226 26.704 22.7745C26.434 23.4264 26.3633 24.1437 26.501 24.8358C26.6386 25.5278 26.9784 26.1635 27.4773 26.6624C27.9763 27.1614 28.612 27.5011 29.304 27.6388C29.996 27.7765 30.7134 27.7058 31.3653 27.4358C32.0171 27.1658 32.5743 26.7085 32.9663 26.1218C33.3583 25.5351 33.5676 24.8454 33.5676 24.1398C33.5663 23.194 33.19 22.2873 32.5212 21.6186C31.8525 20.9498 30.9458 20.5735 30 20.5722Z" fill="#1CAF57"/>
<path d="M31.2604 20.7766C31.1529 20.7766 31.0498 20.7339 30.9738 20.6579C30.8977 20.5818 30.855 20.4787 30.855 20.3712V17.4729C30.855 17.2462 30.7649 17.0287 30.6046 16.8684C30.4442 16.708 30.2268 16.6179 30 16.6179C29.7733 16.6179 29.5558 16.708 29.3954 16.8684C29.2351 17.0287 29.145 17.2462 29.145 17.4729V20.3696C29.145 20.4771 29.1023 20.5802 29.0263 20.6562C28.9502 20.7323 28.8471 20.775 28.7396 20.775C28.6321 20.775 28.529 20.7323 28.4529 20.6562C28.3769 20.5802 28.3342 20.4771 28.3342 20.3696V17.4729C28.3342 17.0311 28.5097 16.6074 28.8221 16.295C29.1345 15.9826 29.5582 15.8071 30 15.8071C30.4418 15.8071 30.8655 15.9826 31.1779 16.295C31.4903 16.6074 31.6658 17.0311 31.6658 17.4729V20.3696C31.666 20.4229 31.6557 20.4758 31.6354 20.5252C31.6152 20.5746 31.5853 20.6195 31.5477 20.6573C31.51 20.6951 31.4652 20.7251 31.4159 20.7456C31.3666 20.7661 31.3138 20.7766 31.2604 20.7766Z" fill="#1CAF57"/>
<path d="M38.9368 35.3108H36.7225C36.6149 35.3108 36.5118 35.2681 36.4358 35.1921C36.3598 35.116 36.317 35.0129 36.317 34.9054C36.317 34.7979 36.3598 34.6948 36.4358 34.6187C36.5118 34.5427 36.6149 34.5 36.7225 34.5H38.9368C39.0443 34.5 39.1474 34.5427 39.2234 34.6187C39.2995 34.6948 39.3422 34.7979 39.3422 34.9054C39.3422 35.0129 39.2995 35.116 39.2234 35.1921C39.1474 35.2681 39.0443 35.3108 38.9368 35.3108Z" fill="#1CAF57"/>
<path d="M23.2776 35.3108H21.0632C20.9557 35.3108 20.8526 35.2681 20.7766 35.1921C20.7005 35.116 20.6578 35.0129 20.6578 34.9054C20.6578 34.7979 20.7005 34.6948 20.7766 34.6187C20.8526 34.5427 20.9557 34.5 21.0632 34.5H23.2776C23.3851 34.5 23.4882 34.5427 23.5642 34.6187C23.6403 34.6948 23.683 34.7979 23.683 34.9054C23.683 35.0129 23.6403 35.116 23.5642 35.1921C23.4882 35.2681 23.3851 35.3108 23.2776 35.3108Z" fill="#1CAF57"/>
<path d="M33.2611 35.3108H26.7389C26.6314 35.3108 26.5283 35.2681 26.4523 35.1921C26.3762 35.116 26.3335 35.0129 26.3335 34.9054C26.3335 34.7979 26.3762 34.6948 26.4523 34.6187C26.5283 34.5427 26.6314 34.5 26.7389 34.5H33.2611C33.3686 34.5 33.4717 34.5427 33.5478 34.6187C33.6238 34.6948 33.6665 34.7979 33.6665 34.9054C33.6665 35.0129 33.6238 35.116 33.5478 35.1921C33.4717 35.2681 33.3686 35.3108 33.2611 35.3108Z" fill="#1CAF57"/>
</svg>
