<svg width="60" height="60" viewBox="0 0 60 60" fill="none" xmlns="http://www.w3.org/2000/svg">
<rect opacity="0.1" width="60" height="60" rx="12" fill="#1CAF57"/>
<g clip-path="url(#clip0_332_10)">
<path d="M20.7216 40.5696C20.7121 40.561 20.7022 40.5528 20.692 40.545C20.3861 40.2912 20.0803 40.019 19.7989 39.7376C19.6202 39.5608 19.3324 39.5608 19.1536 39.7376C18.9747 39.9168 18.9747 40.2069 19.1536 40.386C19.4594 40.6918 19.7653 40.9763 20.1078 41.2515C20.2961 41.4211 20.5862 41.4058 20.7557 41.2174C20.9252 41.0291 20.91 40.7391 20.7216 40.5696Z" fill="#1CAF57"/>
<path d="M15.9204 26.9687C15.6812 26.8851 15.4196 27.0113 15.336 27.2505C15.3236 27.286 15.3156 27.3229 15.3122 27.3603C15.2205 27.7793 15.1501 28.2044 15.0982 28.6295C15.0654 28.8782 15.2384 29.107 15.4866 29.1433H15.5447C15.7769 29.1435 15.9725 28.9702 16.0004 28.7396C16.0493 28.342 16.1166 27.9414 16.2022 27.553C16.2858 27.3138 16.1596 27.0522 15.9204 26.9687Z" fill="#1CAF57"/>
<path d="M18.441 38.138C18.2055 37.8138 17.9823 37.4774 17.7773 37.1349C17.6478 36.9171 17.3663 36.8455 17.1485 36.9751C17.1482 36.9753 17.1477 36.9755 17.1473 36.9758C16.9296 37.1053 16.858 37.3869 16.9875 37.6046C16.9877 37.605 16.988 37.6055 16.9883 37.6059C17.2085 37.9729 17.447 38.3338 17.7009 38.6794C17.8574 38.8786 18.1458 38.9132 18.3451 38.7567C18.5346 38.6077 18.5766 38.3374 18.441 38.138Z" fill="#1CAF57"/>
<path d="M16.8414 35.2448C16.6946 34.8747 16.5601 34.4924 16.4469 34.1071C16.3763 33.8638 16.1218 33.7237 15.8785 33.7943C15.8742 33.7955 15.87 33.7968 15.8658 33.7982C15.625 33.8717 15.4886 34.1257 15.56 34.367C15.6823 34.7769 15.823 35.1867 15.982 35.5904C16.0775 35.8277 16.3472 35.9427 16.5845 35.8473C16.8219 35.7519 16.9369 35.4821 16.8414 35.2448Z" fill="#1CAF57"/>
<path d="M17.1152 23.8232C16.8889 23.7092 16.6129 23.8003 16.4989 24.0266C16.3063 24.4089 16.1289 24.8034 15.9729 25.2041C15.8809 25.4388 15.9957 25.7038 16.2298 25.7974C16.4654 25.8907 16.732 25.7754 16.8253 25.5398C16.8256 25.539 16.8259 25.5382 16.8262 25.5374C16.973 25.1643 17.132 24.7942 17.3186 24.4395C17.4326 24.2131 17.3415 23.9373 17.1152 23.8232Z" fill="#1CAF57"/>
<path d="M16.0159 32.0531C16.0158 32.0527 16.0158 32.0523 16.0157 32.0519C15.9668 31.6543 15.9331 31.2506 15.9178 30.853C15.9086 30.5996 15.6956 30.4018 15.4423 30.4111C15.1889 30.4203 14.9911 30.6333 15.0003 30.8867C15.0003 31.3148 15.0492 31.7461 15.1043 32.1712C15.1356 32.3935 15.3234 32.5604 15.5478 32.5657H15.6181C15.8695 32.534 16.0476 32.3045 16.0159 32.0531Z" fill="#1CAF57"/>
<path d="M28.1866 16.7491C28.1621 16.4957 27.9369 16.3102 27.6835 16.3347C27.2584 16.3775 26.8302 16.4387 26.4081 16.5212C26.1547 16.5449 25.9686 16.7694 25.9922 17.0228C26.0158 17.2762 26.2404 17.4624 26.4938 17.4388L26.4907 17.4265H26.5794C26.9739 17.3501 27.3746 17.292 27.7722 17.2522C28.0256 17.2277 28.2111 17.0025 28.1866 16.7491Z" fill="#1CAF57"/>
<path d="M19.1077 21.0477C18.9169 20.8788 18.6252 20.8966 18.4563 21.0874C18.1749 21.4085 17.9058 21.748 17.655 22.0967C17.5063 22.3018 17.5521 22.5887 17.7574 22.7373C17.8353 22.7938 17.9289 22.8243 18.025 22.8246V22.8307C18.1727 22.8312 18.3115 22.7607 18.3982 22.6411C18.6337 22.3169 18.8844 21.9988 19.1475 21.6991C19.3164 21.5082 19.2986 21.2166 19.1077 21.0477Z" fill="#1CAF57"/>
<path d="M31.2098 16.4112C30.7878 16.3469 30.3565 16.3011 29.9284 16.2766C29.675 16.2614 29.4573 16.4544 29.4421 16.7078C29.4268 16.9612 29.6199 17.1789 29.8733 17.1941C30.277 17.2247 30.6777 17.2675 31.0722 17.3287H31.1425C31.3959 17.3473 31.6164 17.157 31.635 16.9036C31.6535 16.6503 31.4632 16.4297 31.2098 16.4112Z" fill="#1CAF57"/>
<path d="M21.7131 18.8617C21.5696 18.6668 21.2994 18.6169 21.0957 18.7477C20.744 18.9893 20.3984 19.2524 20.0681 19.5246C19.873 19.6867 19.8463 19.9763 20.0085 20.1714C20.1706 20.3665 20.4602 20.3932 20.6553 20.2311C20.9612 19.9742 21.2853 19.7295 21.6156 19.5032C21.8197 19.353 21.8633 19.0658 21.7131 18.8617Z" fill="#1CAF57"/>
<path d="M23.2519 18.4908C23.2504 18.4908 23.2489 18.4905 23.2474 18.4905C23.2458 18.4905 23.2443 18.4908 23.2427 18.4908H23.2519Z" fill="#1CAF57"/>
<path d="M24.8696 17.4163C24.8025 17.172 24.55 17.0282 24.3057 17.0954C24.2842 17.1012 24.2632 17.1087 24.2427 17.1177C23.8421 17.2645 23.4414 17.4235 23.0561 17.6162C22.8263 17.7231 22.7268 17.996 22.8336 18.2257C22.9086 18.3868 23.0699 18.4897 23.2473 18.4906C23.3135 18.4893 23.3787 18.4739 23.4384 18.445C23.7993 18.2738 24.1724 18.1178 24.5486 17.9802C24.793 17.913 24.9367 17.6606 24.8696 17.4163Z" fill="#1CAF57"/>
<path d="M30.4162 43.9536C30.4001 43.7002 30.1817 43.5078 29.9284 43.5239C29.5277 43.5545 29.124 43.5636 28.7234 43.5514C28.47 43.5447 28.2591 43.7445 28.2524 43.9979C28.2456 44.2513 28.4455 44.4622 28.6989 44.4689H29.0873C29.3931 44.4689 29.699 44.4689 29.9865 44.4414C30.2399 44.4254 30.4322 44.207 30.4162 43.9536Z" fill="#1CAF57"/>
<path d="M42.4235 33.3257C42.1777 33.2632 41.9278 33.4118 41.8653 33.6575C41.7674 34.0459 41.6482 34.4313 41.5136 34.8075C41.4338 35.0437 41.5574 35.3005 41.7919 35.3855C42.0304 35.4711 42.2931 35.347 42.3787 35.1086C42.3788 35.1081 42.379 35.1076 42.3791 35.1072C42.5229 34.7035 42.6483 34.2906 42.7553 33.8838C42.8178 33.6381 42.6692 33.3882 42.4235 33.3257Z" fill="#1CAF57"/>
<path d="M43.0092 28.0728C42.9388 27.6508 42.8501 27.2257 42.7431 26.8128C42.6698 26.5702 42.4138 26.433 42.1712 26.5063C41.9413 26.5757 41.8039 26.8108 41.8561 27.0452C41.9571 27.4306 42.0397 27.8282 42.1069 28.2227C42.1465 28.4388 42.3337 28.5966 42.5535 28.5989H42.6299C42.8799 28.5583 43.0496 28.3229 43.0092 28.0728Z" fill="#1CAF57"/>
<path d="M44.9589 22.8073C44.9374 22.7604 44.9079 22.7177 44.8717 22.681L44.0612 21.8369C43.9452 21.7209 43.7746 21.6786 43.6178 21.7268L42.1558 22.1702L40.4431 20.3535L44.2876 18.2127C44.5116 18.1095 44.6095 17.8443 44.5063 17.6203C44.4847 17.5734 44.4552 17.5307 44.4191 17.494L43.3394 16.4144C43.2218 16.3013 43.0517 16.2614 42.896 16.3104L38.0239 17.7846L36.3846 16.0443C35.9669 15.5612 35.2867 15.3998 34.6964 15.6437H34.6689C34.2238 15.8269 33.8703 16.1803 33.6871 16.6254C33.6409 16.7416 33.6081 16.8627 33.5893 16.9863L33.4027 16.9221C33.1612 16.8444 32.9023 16.9772 32.8247 17.2187C32.747 17.4603 32.8798 17.7191 33.1213 17.7968C33.3568 17.8732 33.5923 17.9589 33.8278 18.0476C33.8987 18.1584 33.9818 18.2611 34.0755 18.3534L35.8035 19.9927L35.3081 21.629C30.4622 18.1723 23.7316 19.2985 20.275 24.1443C16.8183 28.9902 17.9445 35.7207 22.7903 39.1774C27.6362 42.6341 34.3668 41.5079 37.8235 36.662C40.58 32.7976 40.4838 27.5848 37.5866 23.8248L38.3695 22.4118L40.1862 24.1245L39.7489 25.5712C39.6962 25.7301 39.7376 25.9052 39.8559 26.0238C39.8559 26.0238 40.752 26.9107 40.7734 26.9413C40.9853 27.0641 41.2567 26.9919 41.3795 26.7801C41.3815 26.7768 41.3834 26.7734 41.3851 26.7701L42.581 24.5772L44.7402 23.3997C44.9642 23.2965 45.0622 23.0312 44.9589 22.8073ZM22.1233 23.4119C23.9671 21.5689 26.4681 20.5346 29.0751 20.537C29.279 20.537 29.4828 20.5431 29.6867 20.5553C31.4209 22.1549 30.9101 23.6137 29.7479 24.9288C29.0621 25.6562 28.3263 26.3348 27.5459 26.9596C26.4173 27.9199 25.3652 28.816 24.9676 29.7122C24.4966 30.7765 24.8422 31.7399 26.7446 32.5809C27.6957 33.003 28.2126 33.3302 28.4144 33.578C28.4174 33.5816 28.4203 33.5841 28.4233 33.5863C28.417 33.5882 28.4107 33.5903 28.4022 33.5933C27.9416 33.7687 27.4514 33.8528 26.9586 33.841C24.6526 33.9389 23.0102 32.4647 21.7349 31.3239C20.8174 30.5073 20.0558 29.8284 19.2637 29.8223C19.3946 27.4062 20.413 25.1234 22.1233 23.4119ZM38.9415 30.3789H38.9445C38.9431 34.6415 36.2029 38.4206 32.1518 39.7468C32.038 39.03 32.1706 38.2957 32.528 37.664C33.0126 36.8857 33.6344 36.2019 34.363 35.6455C37.1859 33.2905 37.345 31.9754 37.4673 30.963C37.5438 30.3238 37.6019 29.8467 38.865 29.1525C38.9157 29.5593 38.9412 29.9689 38.9415 30.3789ZM38.3726 27.0697C38.5093 27.4548 38.6216 27.8481 38.709 28.2472C36.7853 29.2259 36.6997 29.9232 36.5834 30.8744C36.4794 31.7307 36.3449 32.8501 33.7942 34.9787C32.9772 35.6038 32.2826 36.3741 31.745 37.2511C31.2764 38.0795 31.114 39.0462 31.2863 39.9823C25.9808 41.1951 20.6967 37.8773 19.4839 32.5719C19.3452 31.9651 19.2643 31.3466 19.2423 30.7245C19.7286 30.7245 20.3586 31.3025 21.1324 31.9907C22.5331 33.2416 24.3254 34.838 26.9953 34.7432C27.6245 34.7541 28.2491 34.6354 28.8304 34.3946C29.0754 34.2862 29.2609 34.0762 29.3381 33.8196C29.4032 33.5334 29.3206 33.2336 29.1179 33.0213C28.8304 32.6696 28.2004 32.2537 27.1177 31.7705C25.824 31.1985 25.5426 30.6419 25.7964 30.0731C26.1023 29.3574 27.0871 28.5439 28.1331 27.6263C28.9481 26.9676 29.7156 26.2523 30.4299 25.4855C31.7083 24.0297 32.3659 22.4423 31.0661 20.7052C32.5106 21.0005 33.8698 21.6184 35.042 22.5127L34.3386 24.834C34.2867 24.993 34.3279 25.1678 34.4456 25.2867C34.4456 25.2867 35.5864 26.4183 35.6231 26.4397C35.835 26.5625 36.1063 26.4903 36.2292 26.2784C36.2311 26.2751 36.2329 26.2718 36.2348 26.2684L37.1248 24.6597C37.6501 25.4015 38.07 26.2126 38.3726 27.0697ZM42.4739 23.6535L42.0794 23.8492C41.9911 23.893 41.92 23.9651 41.8775 24.0541L41.6818 24.4517L40.9202 25.828L40.697 25.5833L41.1405 24.1183C41.1921 23.9467 41.1354 23.7609 40.9967 23.6474L38.5836 21.375C38.4089 21.2033 38.1282 21.2058 37.9565 21.3805C37.9524 21.3847 37.9484 21.389 37.9444 21.3933C37.9138 21.427 35.7424 25.3386 35.7424 25.3386L35.2683 24.8646L36.7486 19.9864C36.8017 19.8139 36.7448 19.6264 36.6048 19.5124L34.6842 17.7049C34.4716 17.5248 34.401 17.2273 34.5098 16.9709C34.6074 16.7487 34.7856 16.5717 35.0084 16.4754H35.0236C35.277 16.3776 35.5644 16.4513 35.7393 16.6589L37.5744 18.5979C37.6896 18.7216 37.8651 18.7691 38.027 18.7203L42.9204 17.2431L43.3945 17.7171L39.5103 19.8519C39.2953 19.9692 39.2161 20.2386 39.3335 20.4535C39.3353 20.4569 39.3371 20.4602 39.3391 20.4636C39.3574 20.4972 41.6971 22.9867 41.6971 22.9867C41.813 23.1094 41.9885 23.1556 42.1497 23.106L43.6208 22.6625L43.8502 22.8919L42.4739 23.6535Z" fill="#1CAF57"/>
<path d="M41.2923 36.5499C41.2857 36.546 41.2789 36.5421 41.272 36.5386C41.0528 36.424 40.7822 36.5038 40.6603 36.7191C40.4676 37.0708 40.2566 37.4164 40.0303 37.7467C39.8842 37.9544 39.9342 38.2413 40.1419 38.3874C40.3496 38.5335 40.6365 38.4835 40.7826 38.2758C41.0212 37.921 41.2475 37.5509 41.4555 37.1778C41.5838 36.9593 41.5108 36.6782 41.2923 36.5499Z" fill="#1CAF57"/>
<path d="M42.7431 29.8528C42.4898 29.8494 42.2816 30.0519 42.2781 30.3052C42.278 30.3114 42.278 30.3176 42.2782 30.3238V30.3758C42.2782 30.7765 42.2599 31.1802 42.2232 31.5808C42.2002 31.8332 42.3861 32.0563 42.6384 32.0793C42.6386 32.0793 42.6389 32.0794 42.6391 32.0794H42.6819C42.9239 32.0817 43.126 31.8955 43.1437 31.6542C43.1835 31.2291 43.2019 30.7979 43.2019 30.3697V30.3085C43.2002 30.0564 42.9953 29.8528 42.7431 29.8528Z" fill="#1CAF57"/>
<path d="M26.6345 43.3221C26.2369 43.2548 25.8424 43.1692 25.4601 43.0529C25.221 42.9689 24.9592 43.0945 24.8751 43.3336C24.791 43.5726 24.9167 43.8345 25.1557 43.9186C25.1732 43.9248 25.1911 43.9298 25.2093 43.9339C25.6191 44.0501 26.0412 44.151 26.4632 44.2397H26.5488C26.8022 44.2633 27.0268 44.0771 27.0504 43.8237C27.0741 43.5704 26.8879 43.3458 26.6345 43.3221Z" fill="#1CAF57"/>
<path d="M33.7328 43.1826C33.6498 42.9574 33.4072 42.8341 33.1764 42.9V42.9123C32.7971 43.0377 32.4057 43.1447 32.0173 43.2181C31.7698 43.2739 31.6144 43.5197 31.6701 43.7671C31.7259 44.0145 31.9717 44.17 32.2191 44.1142C32.6351 44.0194 33.0541 43.9032 33.4608 43.7717C33.6986 43.6841 33.8203 43.4203 33.7328 43.1826Z" fill="#1CAF57"/>
<path d="M23.4874 42.3219C23.1235 42.1415 22.7656 41.9458 22.42 41.75C22.2013 41.6216 21.9199 41.6949 21.7915 41.9136C21.6631 42.1324 21.7364 42.4138 21.9551 42.5421C22.3252 42.7593 22.7075 42.9612 23.0959 43.1538C23.3256 43.262 23.5995 43.1633 23.7076 42.9336C23.8157 42.7039 23.7172 42.4301 23.4874 42.3219Z" fill="#1CAF57"/>
<path d="M39.3432 39.3708C39.1594 39.203 38.8752 39.2123 38.7029 39.392H38.7059C38.4307 39.6979 38.1401 39.967 37.8435 40.2331C37.6543 40.402 37.6379 40.6923 37.8068 40.8815C37.9757 41.0706 38.266 41.0871 38.4552 40.9182C38.761 40.6337 39.0852 40.3309 39.3727 40.019C39.5436 39.8318 39.5303 39.5416 39.3432 39.3708Z" fill="#1CAF57"/>
<path d="M36.8121 41.6592C36.6821 41.4417 36.4005 41.3709 36.1829 41.5008C36.1756 41.5052 36.1684 41.5098 36.1614 41.5146V41.5024C35.8249 41.7165 35.4732 41.9183 35.1185 42.1141C34.893 42.2297 34.804 42.5064 34.9197 42.7319C35.0353 42.9573 35.312 43.0463 35.5375 42.9306C35.9167 42.7349 36.2929 42.5178 36.6538 42.2884C36.8712 42.1583 36.9422 41.8766 36.8121 41.6592Z" fill="#1CAF57"/>
</g>
<defs>
<clipPath id="clip0_332_10">
<rect width="30" height="30" fill="white" transform="translate(15 15)"/>
</clipPath>
</defs>
</svg>
