<svg width="60" height="60" viewBox="0 0 60 60" fill="none" xmlns="http://www.w3.org/2000/svg">
<rect opacity="0.1" width="60" height="60" rx="12" fill="#1CAF57"/>
<g clip-path="url(#clip0_332_2)">
<path d="M28.6078 31.3727C28.5523 31.3607 28.4954 31.3585 28.4392 31.3669C27.8757 31.3014 27.4507 30.8246 27.4497 30.2576C27.4497 29.9858 27.2294 29.7655 26.9576 29.7655C26.6859 29.7655 26.4655 29.9858 26.4655 30.2576C26.467 31.2045 27.1003 32.034 28.0134 32.2846V32.7767C28.0134 33.0484 28.2337 33.2687 28.5055 33.2687C28.7772 33.2687 28.9976 33.0484 28.9976 32.7767V32.3144C30.0514 32.0938 30.7677 31.1123 30.6569 30.0413C30.5459 28.9704 29.6437 28.1566 28.567 28.1564C27.95 28.1564 27.4497 27.6561 27.4497 27.0391C27.4497 26.4221 27.95 25.9218 28.567 25.9218C29.184 25.9218 29.6843 26.4221 29.6843 27.0391C29.6843 27.3108 29.9046 27.5312 30.1764 27.5312C30.4481 27.5312 30.6684 27.3108 30.6684 27.0391C30.667 26.0448 29.9704 25.1873 28.9976 24.9821V24.5342C28.9976 24.2624 28.7772 24.0421 28.5055 24.0421C28.2337 24.0421 28.0134 24.2624 28.0134 24.5342V25.0121C26.998 25.2894 26.3444 26.2752 26.4843 27.3185C26.6241 28.3618 27.5143 29.1405 28.567 29.1403C29.1758 29.1403 29.6725 29.6278 29.6836 30.2364C29.6948 30.8451 29.2162 31.3506 28.6078 31.3727Z" fill="#1CAF57"/>
<path d="M21.4312 28.6861C21.4312 32.6272 24.626 35.8219 28.567 35.8219C32.508 35.8219 35.7027 32.6272 35.7027 28.6861C35.7027 24.7451 32.508 21.5504 28.567 21.5504C24.6279 21.5547 21.4358 24.7471 21.4312 28.6861ZM28.567 22.5346C31.9645 22.5346 34.7186 25.2886 34.7186 28.6861C34.7186 32.0837 31.9645 34.8377 28.567 34.8377C25.1695 34.8377 22.4154 32.0837 22.4154 28.6861C22.4193 25.2903 25.1712 22.5384 28.567 22.5346Z" fill="#1CAF57"/>
<path d="M38.1286 37.0351L34.2738 38.8564C33.7416 37.8664 32.7206 37.2364 31.5971 37.2047L28.0386 37.1069C27.4752 37.0908 26.9223 36.9481 26.4213 36.6893L26.0592 36.5017C24.2052 35.5353 21.9954 35.5377 20.1434 36.5079L20.166 35.6876C20.1734 35.4158 19.9593 35.1895 19.6876 35.1821L15.7855 35.0747C15.5137 35.0672 15.2876 35.2813 15.2802 35.553L15.0445 44.116C15.037 44.3878 15.2511 44.6141 15.5228 44.6216L19.4249 44.729H19.4384C19.7051 44.729 19.9233 44.5168 19.9305 44.2503L19.9418 43.8407L20.9555 43.2979C21.3534 43.0838 21.8186 43.0329 22.2532 43.1559L28.3068 44.8549C28.3173 44.858 28.3279 44.8604 28.3387 44.8628C28.7763 44.9544 29.2222 45.0003 29.6691 45C30.6158 45.0005 31.5515 44.7965 32.4119 44.4015C32.433 44.3919 32.4535 44.3806 32.4729 44.3678L41.25 38.6906C41.4686 38.5491 41.5393 38.2619 41.4112 38.0351C40.7596 36.8789 39.3143 36.4385 38.1286 37.0351ZM16.0418 43.6513L16.2504 36.072L19.1686 36.1523L18.96 43.7318L16.0418 43.6513ZM31.9686 43.5226C30.8996 44.005 29.7057 44.1381 28.5567 43.9034L22.5195 42.2087C21.84 42.0167 21.1126 42.0963 20.491 42.4305L19.973 42.708L20.1116 37.6687C21.7532 36.5769 23.8585 36.4647 25.6068 37.3755L25.9689 37.5632C26.6018 37.89 27.2998 38.0702 28.0117 38.0908L31.5704 38.1886C32.57 38.2175 33.4189 38.9292 33.6217 39.9085L28.3209 39.7622C28.0492 39.7548 27.8231 39.9691 27.8154 40.2406C27.808 40.5124 28.0223 40.7387 28.2938 40.7462L34.1436 40.9071H34.1573C34.4237 40.9069 34.6417 40.6947 34.6489 40.4285C34.6549 40.2147 34.639 40.0006 34.6013 39.7901L38.555 37.9219C38.5589 37.9203 38.5627 37.9183 38.5666 37.9164C39.1274 37.6326 39.8054 37.7275 40.2668 38.1545L31.9686 43.5226Z" fill="#1CAF57"/>
<path d="M29.0591 20.1669V15.4921C29.0591 15.2203 28.8387 15 28.567 15C28.2952 15 28.0749 15.2203 28.0749 15.4921V20.1669C28.0749 20.4387 28.2952 20.659 28.567 20.659C28.8387 20.659 29.0591 20.4387 29.0591 20.1669Z" fill="#1CAF57"/>
<path d="M32.7497 20.1669V17.9525C32.7497 17.6808 32.5294 17.4604 32.2576 17.4604C31.9859 17.4604 31.7655 17.6808 31.7655 17.9525V20.1669C31.7655 20.4387 31.9859 20.659 32.2576 20.659C32.5294 20.659 32.7497 20.4387 32.7497 20.1669Z" fill="#1CAF57"/>
<path d="M25.3684 20.1669V17.9525C25.3684 17.6808 25.1481 17.4604 24.8763 17.4604C24.6046 17.4604 24.3842 17.6808 24.3842 17.9525V20.1669C24.3842 20.4387 24.6046 20.659 24.8763 20.659C25.1481 20.659 25.3684 20.4387 25.3684 20.1669Z" fill="#1CAF57"/>
</g>
<defs>
<clipPath id="clip0_332_2">
<rect width="30" height="30" fill="white" transform="translate(15 15)"/>
</clipPath>
</defs>
</svg>
