<svg width="60" height="60" viewBox="0 0 60 60" fill="none" xmlns="http://www.w3.org/2000/svg">
<rect opacity="0.1" width="60" height="60" rx="12" fill="#1CAF57"/>
<path d="M23.0252 33.0606C23.3054 32.899 23.4013 32.5403 23.2397 32.2602C23.0779 31.9803 22.7194 31.8841 22.4393 32.0457C22.1591 32.2075 22.063 32.5662 22.2248 32.8461C22.3864 33.1263 22.7451 33.2224 23.0252 33.0606Z" fill="#1CAF57"/>
<path d="M20.6241 37.1046L23.5748 42.2158C24.2116 43.3199 25.6439 43.7287 26.7767 43.0739C27.8975 42.4261 28.2827 40.994 27.6343 39.8723L25.8765 36.8272L27.3988 35.9483C27.6789 35.7863 27.775 35.4281 27.6132 35.1479L26.8513 33.8282C26.9421 33.8106 27.5395 33.6934 38.0743 31.6268C39.3766 31.5561 40.1569 30.1318 39.4991 28.9931L37.5517 25.6203L38.7962 23.7354C38.9184 23.55 38.9257 23.3118 38.8147 23.1195L37.6428 21.0898C37.5318 20.8975 37.321 20.7849 37.1001 20.798L34.8459 20.9332L32.6841 17.1887C32.371 16.6463 31.81 16.3178 31.1838 16.31C31.1762 16.3098 31.1689 16.3098 31.1613 16.3098C30.5562 16.3098 30.0069 16.611 29.6814 17.1203L22.0271 26.8711L17.051 29.744C15.0938 30.8736 14.4159 33.3844 15.5498 35.3468C16.5857 37.1413 18.7697 37.8471 20.6241 37.1046ZM26.6196 40.4585C26.9433 41.0183 26.7517 41.7347 26.1903 42.059C25.627 42.3847 24.9097 42.1847 24.5897 41.6301L21.66 36.5551L23.6897 35.3832C27.0804 41.2568 26.5652 40.3644 26.6196 40.4585ZM25.2905 35.8121L24.7046 34.7973L25.7194 34.2113L26.3054 35.2262L25.2905 35.8121ZM36.809 21.9893L37.6188 23.3919L36.8967 24.4855L35.5009 22.0678L36.809 21.9893ZM30.6615 17.7628C30.8187 17.5055 31.0682 17.4789 31.1694 17.4817C31.2694 17.4828 31.5186 17.514 31.669 17.7744L38.4842 29.579C38.7062 29.9633 38.4364 30.4465 37.9912 30.4575C37.9113 30.4593 37.8744 30.4737 37.6698 30.5119L30.4607 18.0253C30.612 17.8307 30.6315 17.812 30.6615 17.7628ZM29.6809 19.0186L36.4542 30.7504L26.2319 32.7554L23.1237 27.3719L29.6809 19.0186ZM16.5646 34.7609C16.3074 34.3157 16.1714 33.8103 16.1714 33.299C16.1714 32.254 16.7331 31.2807 17.6369 30.7589L22.2038 28.1222L25.1335 33.1965L20.5666 35.8334C19.1675 36.6409 17.3724 36.1598 16.5646 34.7609Z" fill="#1CAF57"/>
<path d="M21.21 33.4321C21.0481 33.1519 20.6897 33.0558 20.4096 33.2176L19.3947 33.8036C19.115 33.9652 18.7559 33.8688 18.5943 33.5891C18.4325 33.3089 18.0741 33.2128 17.7939 33.3746C17.5138 33.5365 17.4176 33.8949 17.5794 34.175C18.0617 35.0105 19.1374 35.305 19.9806 34.8184L20.9955 34.2325C21.2757 34.0707 21.3718 33.7125 21.21 33.4321Z" fill="#1CAF57"/>
<path d="M44.1291 17.5633L40.8641 19.3801C40.5815 19.5376 40.4796 19.8944 40.6371 20.1771C40.7941 20.4595 41.1507 20.5618 41.434 20.4041L44.6988 18.5873C44.9817 18.4298 45.0833 18.073 44.9259 17.7903C44.7686 17.5074 44.4118 17.4058 44.1291 17.5633Z" fill="#1CAF57"/>
<path d="M43.7867 23.6318L41.5228 23.0253C41.2101 22.9415 40.8888 23.1269 40.805 23.4395C40.7212 23.7522 40.9069 24.0733 41.2195 24.1571L43.4836 24.7636C43.7981 24.8481 44.1178 24.6597 44.2012 24.3493C44.2849 24.0367 44.0993 23.7153 43.7867 23.6318Z" fill="#1CAF57"/>
<path d="M38.0976 15.4344L37.4903 17.6985C37.4066 18.0112 37.592 18.3323 37.9046 18.4163C38.217 18.4998 38.5384 18.3149 38.6224 18.002L39.2294 15.7379C39.3131 15.4252 39.1278 15.1039 38.8151 15.0201C38.5027 14.9364 38.1813 15.1217 38.0976 15.4344Z" fill="#1CAF57"/>
</svg>
