<svg width="60" height="60" viewBox="0 0 60 60" fill="none" xmlns="http://www.w3.org/2000/svg">
<rect opacity="0.1" width="59.9722" height="60" rx="12" fill="#1CAF57"/>
<path d="M20.3226 22.2674C21.0945 22.2674 21.7226 21.6393 21.7226 20.8674C21.7226 20.0955 21.0945 19.4674 20.3226 19.4674C19.5507 19.4674 18.9226 20.0955 18.9226 20.8674C18.9226 21.6393 19.5508 22.2674 20.3226 22.2674ZM20.3226 20.2674C20.6535 20.2674 20.9226 20.5365 20.9226 20.8674C20.9226 21.1983 20.6535 21.4674 20.3226 21.4674C19.9917 21.4674 19.7226 21.1983 19.7226 20.8674C19.7226 20.5365 19.9918 20.2674 20.3226 20.2674Z" fill="#1CAF57"/>
<path d="M41.9226 18.4144C41.6725 18.4144 41.4696 18.6172 41.4696 18.8674C41.4696 19.1175 41.6724 19.3203 41.9226 19.3203C42.1728 19.3203 42.3756 19.1175 42.3756 18.8674C42.3756 18.6172 42.1728 18.4144 41.9226 18.4144Z" fill="#1CAF57"/>
<path d="M37.1402 19.885C37.2964 19.7288 37.2964 19.4756 37.1402 19.3194L36.6882 18.8674L37.1402 18.4154C37.2964 18.2592 37.2964 18.006 37.1402 17.8498C36.984 17.6936 36.7308 17.6936 36.5746 17.8498L36.1226 18.3018L35.6706 17.8498C35.5144 17.6936 35.2612 17.6936 35.105 17.8498C34.9488 18.006 34.9488 18.2592 35.105 18.4154L35.557 18.8674L35.105 19.3194C34.9488 19.4756 34.9488 19.7288 35.105 19.885C35.1831 19.9631 35.2855 20.0022 35.3878 20.0022C35.4901 20.0022 35.5925 19.9631 35.6706 19.885L36.1226 19.433L36.5746 19.885C36.6527 19.9631 36.7551 20.0022 36.8574 20.0022C36.9597 20.0022 37.0621 19.9631 37.1402 19.885Z" fill="#1CAF57"/>
<path d="M34.1105 34.7864L32.5404 34.0727L30.9226 33.3373V33.0031C32.4526 32.2712 33.6158 30.9087 34.0878 29.2666C34.346 29.2766 34.5983 29.202 34.8401 29.0514C35.2114 28.8202 35.4624 28.4432 35.5118 28.0432C35.561 27.6424 35.4372 27.2405 35.1716 26.9403C34.9965 26.7423 34.7703 26.6019 34.5221 26.5278C34.5221 26.5278 34.5154 26.2219 34.5145 26.1963C34.9833 26.0329 35.3226 25.5912 35.3226 25.0675C35.3226 24.7142 35.1663 24.3994 34.9226 24.1796V24.0675C34.9226 20.8695 32.3206 18.2675 29.1226 18.2675H28.7226C25.5246 18.2675 22.9226 20.8695 22.9226 24.0675V24.1796C22.6789 24.3994 22.5226 24.7142 22.5226 25.0675C22.5226 25.7292 23.0609 26.2675 23.7226 26.2675H23.7501C23.752 26.3661 23.7531 26.4527 23.7531 26.5163C23.5127 26.5815 23.2935 26.7106 23.1152 26.8952C22.849 27.171 22.7099 27.5343 22.7234 27.9184C22.7388 28.3463 22.9816 28.7594 23.373 29.0237C23.6205 29.1907 23.8742 29.2737 24.1378 29.2676C24.5561 30.7962 25.5708 32.0788 26.9245 32.8577C26.9244 32.8611 26.9225 32.8639 26.9225 32.8674V33.3371L25.3045 34.0727C25.3044 34.0727 25.3043 34.0729 25.3042 34.0729L23.7346 34.7861C22.2694 35.4521 21.3225 36.94 21.3225 38.5771V41.8673C21.3225 42.0882 21.5016 42.2673 21.7225 42.2673H36.1225C36.3434 42.2673 36.5225 42.0882 36.5225 41.8673V38.5771C36.5226 36.9401 35.5758 35.4522 34.1105 34.7864ZM30.7927 34.1569L31.8547 34.6398L30.8328 37.0537L29.608 35.3389C30.1567 35.137 30.5898 34.705 30.7927 34.1569ZM33.6936 26.2675C33.6927 26.3345 33.692 26.3989 33.6918 26.455C31.8813 27.4542 30.0225 26.8907 28.8101 26.2675H33.6936ZM28.7226 19.0675H29.1226C31.8121 19.0675 34.0063 21.2036 34.1125 23.8675H23.7328C23.8389 21.2035 26.0331 19.0675 28.7226 19.0675ZM23.3226 25.0675C23.3226 24.847 23.5021 24.6675 23.7226 24.6675H34.1226C34.3431 24.6675 34.5226 24.847 34.5226 25.0675C34.5226 25.288 34.3431 25.4675 34.1226 25.4675H23.7226C23.5021 25.4675 23.3226 25.288 23.3226 25.0675ZM24.8316 28.731C24.8086 28.6187 24.7386 28.5216 24.6392 28.4646C24.54 28.4074 24.4214 28.3958 24.3122 28.4322C24.1579 28.4843 24.0151 28.4922 23.8204 28.3607C23.6431 28.2408 23.529 28.0603 23.5229 27.89C23.517 27.725 23.5766 27.5691 23.6907 27.4509C23.805 27.3325 23.9583 27.2675 24.1225 27.2675C24.2305 27.2675 24.3385 27.2216 24.4139 27.1441C24.4434 27.1137 24.467 27.0838 24.4863 27.0473C24.5079 27.0509 24.529 27.0582 24.551 27.0582C24.5852 27.0582 24.6196 27.0539 24.6531 27.0449C25.0929 26.9287 25.5615 26.6769 26.0457 26.2969C26.0562 26.2886 26.0612 26.2767 26.0707 26.2676H27.2821C27.9664 26.7646 29.6318 27.8057 31.5754 27.8057C32.3389 27.8057 33.1451 27.6432 33.9504 27.225C34.0046 27.2507 34.0626 27.2676 34.1225 27.2676C34.2944 27.2676 34.4582 27.3414 34.5723 27.4703C34.6877 27.601 34.7393 27.7697 34.7176 27.9457C34.6977 28.1082 34.5852 28.2678 34.4172 28.3725C34.2488 28.4776 34.1061 28.4942 33.9244 28.4299C33.8164 28.3918 33.6969 28.4016 33.5967 28.4576C33.4965 28.5135 33.425 28.6097 33.4006 28.7219C33.0108 30.5102 31.6889 31.9711 29.951 32.5344L29.7731 32.592C29.2835 32.7506 28.762 32.757 28.3051 32.6102C26.5365 32.0405 25.2055 30.5542 24.8316 28.731ZM28.0601 33.3716C28.363 33.4691 28.6785 33.5177 28.9978 33.5177C29.3373 33.5177 29.6812 33.4626 30.0197 33.3531L30.1226 33.3198V33.4676C30.1226 34.1293 29.5843 34.6676 28.9226 34.6676C28.2609 34.6676 27.7226 34.1293 27.7226 33.4676V33.239C27.8353 33.2829 27.9441 33.3342 28.0601 33.3716ZM27.0526 34.1568C27.2555 34.7049 27.6886 35.137 28.2373 35.3388L27.0125 37.0536L25.9906 34.6397L27.0526 34.1568ZM22.1226 38.5772C22.1226 37.2532 22.8853 36.051 24.0656 35.5145L25.262 34.9707L26.5543 38.0233C26.6107 38.1567 26.7348 38.2491 26.8787 38.2651C26.8935 38.2667 26.9082 38.2674 26.9226 38.2674C27.0509 38.2674 27.1726 38.2057 27.2482 38.0998L28.5226 36.3156V41.4674H24.9226V39.8674C24.9226 39.6465 24.7435 39.4674 24.5226 39.4674C24.3017 39.4674 24.1226 39.6465 24.1226 39.8674V41.4674H22.1226V38.5772ZM35.7226 41.4675H34.1226V39.8675C34.1226 39.6466 33.9435 39.4675 33.7226 39.4675C33.5017 39.4675 33.3226 39.6466 33.3226 39.8675V41.4675H29.3226V36.3157L30.597 38.0999C30.6726 38.2058 30.7943 38.2675 30.9226 38.2675C30.9371 38.2675 30.9517 38.2667 30.9665 38.2652C31.1104 38.2492 31.2345 38.1568 31.2909 38.0234L32.5832 34.9709L33.7796 35.5148C34.9599 36.0511 35.7226 37.2533 35.7226 38.5773V41.4675Z" fill="#1CAF57"/>
<path d="M31.1226 28.8674C31.3435 28.8674 31.5226 28.6883 31.5226 28.4674C31.5226 28.2465 31.3435 28.0674 31.1226 28.0674C30.9017 28.0674 30.7226 28.2465 30.7226 28.4674C30.7226 28.6883 30.9017 28.8674 31.1226 28.8674Z" fill="#1CAF57"/>
<path d="M27.1226 28.8674C27.3435 28.8674 27.5226 28.6883 27.5226 28.4674C27.5226 28.2465 27.3435 28.0674 27.1226 28.0674C26.9017 28.0674 26.7226 28.2465 26.7226 28.4674C26.7226 28.6883 26.9017 28.8674 27.1226 28.8674Z" fill="#1CAF57"/>
<path d="M28.2088 22.2318L28.6945 22.2476L28.1668 22.7861C28.0123 22.9437 28.0148 23.197 28.1727 23.3517C28.2504 23.4279 28.3516 23.466 28.4526 23.466C28.5563 23.466 28.66 23.426 28.7383 23.3459L29.9031 22.1572C30.014 22.0439 30.0476 21.8758 29.9886 21.7283C29.9294 21.581 29.789 21.4826 29.6302 21.4775L29.0341 21.4582L29.6257 20.7205C29.7638 20.5482 29.7362 20.2965 29.5638 20.1582C29.3919 20.0203 29.1398 20.0478 29.0015 20.2201L27.9095 21.5818C27.8148 21.7 27.7949 21.8615 27.8581 21.9992C27.9217 22.1369 28.0572 22.227 28.2088 22.2318Z" fill="#1CAF57"/>
<path d="M40.6631 23.0521C40.5945 22.9189 40.4572 22.8351 40.3074 22.8351H39.6342L40.1246 20.1372C40.1588 19.9495 40.0555 19.7636 39.8777 19.6936C39.6996 19.6227 39.4976 19.6885 39.3945 19.8495L36.8013 23.8833C36.7222 24.0063 36.7165 24.1628 36.7867 24.2911C36.8568 24.4196 36.9916 24.4995 37.1379 24.4995H38.0074L37.05 27.1321C36.9816 27.32 37.0627 27.5296 37.2396 27.6227C37.2988 27.6539 37.3626 27.6688 37.4257 27.6688C37.5513 27.6688 37.6739 27.6096 37.7513 27.5012L40.6327 23.4674C40.7199 23.3457 40.7316 23.1854 40.6631 23.0521ZM38.8027 24.6533L38.9545 24.2363C38.999 24.1136 38.9811 23.9769 38.9061 23.8701C38.8313 23.7633 38.709 23.6996 38.5786 23.6996H37.8706L38.9768 21.9789L38.7614 23.1637C38.7401 23.2803 38.7719 23.4004 38.8479 23.4914C38.9239 23.5824 39.0364 23.6352 39.1549 23.6352H39.5301L38.8027 24.6533Z" fill="#1CAF57"/>
<path d="M21.3226 34.9219C21.3728 34.8626 21.4109 34.7921 21.4197 34.7096L21.5092 33.8639C21.5352 33.62 21.6338 33.4123 21.7865 33.2789C22.3168 32.8166 22.6209 32.1539 22.6209 31.4607C22.6209 30.115 21.5002 29.0203 20.1227 29.0203C18.7452 29.0203 17.6245 30.115 17.6245 31.4607C17.6245 32.1539 17.9286 32.8166 18.4589 33.2789C18.6116 33.4123 18.7103 33.6199 18.736 33.8637L18.8256 34.7096C18.8344 34.7921 18.8724 34.8626 18.9227 34.9219V35.4674C18.9227 36.1291 19.461 36.6674 20.1227 36.6674C20.7844 36.6674 21.3227 36.1291 21.3227 35.4674V34.9219H21.3226ZM18.4244 31.4607C18.4244 30.5562 19.1863 29.8203 20.1226 29.8203C21.0589 29.8203 21.8208 30.5562 21.8208 31.4607C21.8208 31.9226 21.6167 32.3656 21.2606 32.6761C20.9553 32.9423 20.761 33.3341 20.7135 33.7792L20.6619 34.2673H20.5224V32.433L21.2052 31.7502C21.3614 31.594 21.3614 31.3408 21.2052 31.1846C21.049 31.0284 20.7958 31.0284 20.6396 31.1846L20.087 31.7372L19.6241 31.2049C19.4792 31.0383 19.2268 31.0203 19.0598 31.1656C18.8932 31.3105 18.8754 31.5631 19.0205 31.7299L19.7223 32.5369V34.2674H19.5828L19.531 33.7791C19.4837 33.3342 19.2894 32.9424 18.9841 32.6762C18.6285 32.3656 18.4244 31.9227 18.4244 31.4607ZM20.5226 35.4674C20.5226 35.6879 20.3431 35.8674 20.1226 35.8674C19.9021 35.8674 19.7226 35.6879 19.7226 35.4674V35.0674H20.5226V35.4674Z" fill="#1CAF57"/>
<path d="M40.9226 35.4675H40.1226V32.0331L41.2054 30.9503C41.3185 30.8372 41.3534 30.6675 41.2941 30.5189L40.4941 28.5189C40.4332 28.3671 40.2861 28.2675 40.1226 28.2675H39.3226C39.1591 28.2675 39.0121 28.3671 38.9511 28.5189L38.1511 30.5189C38.0915 30.6681 38.1269 30.8386 38.2409 30.9517L39.3225 32.0235V35.4675H38.5225C38.3016 35.4675 38.1225 35.6466 38.1225 35.8675V40.6675C38.1225 41.5497 38.8403 42.2675 39.7225 42.2675C40.6047 42.2675 41.3225 41.5497 41.3225 40.6675V35.8675C41.3226 35.6466 41.1435 35.4675 40.9226 35.4675ZM39.5935 29.0675H39.8517L40.4533 30.5712L39.7267 31.2976L38.9925 30.5701L39.5935 29.0675ZM40.5226 40.6675C40.5226 41.1087 40.1638 41.4675 39.7226 41.4675C39.2814 41.4675 38.9226 41.1087 38.9226 40.6675V36.2675H40.5226V40.6675Z" fill="#1CAF57"/>
<path d="M32.5226 39.0674H30.5226C30.3017 39.0674 30.1226 39.2465 30.1226 39.4674C30.1226 39.6883 30.3017 39.8674 30.5226 39.8674H32.5226C32.7435 39.8674 32.9226 39.6883 32.9226 39.4674C32.9226 39.2465 32.7435 39.0674 32.5226 39.0674Z" fill="#1CAF57"/>
</svg>
