<svg width="60" height="60" viewBox="0 0 60 60" fill="none" xmlns="http://www.w3.org/2000/svg">
<rect opacity="0.1" width="60" height="60" rx="12" fill="#1CAF57"/>
<path d="M34.2527 35.1979H32.3625C32.2373 35.1979 32.1171 35.2476 32.0286 35.3362C31.94 35.4248 31.8903 35.5449 31.8903 35.6701V37.5586C31.8902 37.6207 31.9023 37.6822 31.926 37.7395C31.9497 37.7969 31.9845 37.849 32.0284 37.8929C32.0722 37.9369 32.1243 37.9717 32.1817 37.9955C32.239 38.0192 32.3005 38.0315 32.3625 38.0315H34.2527C34.3781 38.0315 34.4984 37.9817 34.5871 37.893C34.6758 37.8043 34.7256 37.684 34.7256 37.5586V35.6701C34.7256 35.6081 34.7134 35.5466 34.6896 35.4893C34.6658 35.4319 34.631 35.3799 34.5871 35.336C34.5431 35.2921 34.491 35.2574 34.4336 35.2337C34.3763 35.21 34.3148 35.1978 34.2527 35.1979ZM33.7805 37.0899H32.8354V36.143H33.7805V37.0899Z" fill="#1CAF57"/>
<path d="M38.9783 35.1979H37.0899C37.0278 35.1978 36.9663 35.21 36.909 35.2337C36.8516 35.2574 36.7995 35.2921 36.7555 35.336C36.7116 35.3799 36.6768 35.4319 36.653 35.4893C36.6292 35.5466 36.617 35.6081 36.617 35.6701V37.5586C36.6168 37.6209 36.6288 37.6825 36.6525 37.7401C36.6762 37.7977 36.7109 37.85 36.7549 37.8941C36.7988 37.9382 36.851 37.9732 36.9085 37.9971C36.966 38.0209 37.0276 38.0332 37.0899 38.0332H38.9801C39.0422 38.0332 39.1036 38.021 39.161 37.9972C39.2183 37.9735 39.2704 37.9386 39.3142 37.8947C39.3581 37.8508 39.3929 37.7987 39.4166 37.7413C39.4403 37.6839 39.4524 37.6224 39.4524 37.5604V35.6701C39.4524 35.608 39.4401 35.5464 39.4162 35.489C39.3924 35.4316 39.3575 35.3795 39.3134 35.3356C39.2694 35.2917 39.2171 35.257 39.1596 35.2333C39.1021 35.2097 39.0405 35.1976 38.9783 35.1979ZM38.5055 37.0899H37.5586V36.143H38.5037L38.5055 37.0899Z" fill="#1CAF57"/>
<path d="M22.9102 38.0332C22.9726 38.0335 23.0344 38.0213 23.0921 37.9976C23.1498 37.9738 23.2022 37.9389 23.2463 37.8947C23.2904 37.8506 23.3254 37.7982 23.3491 37.7405C23.3729 37.6828 23.385 37.621 23.3848 37.5586V35.6701C23.3848 35.6081 23.3726 35.5466 23.3488 35.4893C23.325 35.4319 23.2902 35.3799 23.2463 35.336C23.2024 35.2921 23.1502 35.2574 23.0929 35.2337C23.0355 35.21 22.974 35.1978 22.9119 35.1979H21.0217C20.8965 35.1979 20.7763 35.2476 20.6878 35.3362C20.5992 35.4248 20.5494 35.5449 20.5494 35.6701V37.5586C20.5494 37.6207 20.5615 37.6822 20.5852 37.7395C20.6089 37.7969 20.6437 37.849 20.6876 37.8929C20.7314 37.9369 20.7835 37.9717 20.8408 37.9955C20.8982 38.0192 20.9596 38.0315 21.0217 38.0315L22.9102 38.0332ZM21.4928 36.143H22.4414V37.0899H21.4946L21.4928 36.143Z" fill="#1CAF57"/>
<path d="M25.7473 38.0332H27.6375C27.6996 38.0332 27.761 38.021 27.8184 37.9972C27.8757 37.9735 27.9278 37.9386 27.9717 37.8947C28.0155 37.8508 28.0503 37.7987 28.074 37.7413C28.0977 37.6839 28.1098 37.6225 28.1098 37.5604V35.6701C28.1098 35.5449 28.06 35.4248 27.9714 35.3362C27.8829 35.2476 27.7628 35.1979 27.6375 35.1979H25.7473C25.6852 35.1978 25.6237 35.21 25.5664 35.2337C25.509 35.2574 25.4569 35.2921 25.4129 35.336C25.369 35.3799 25.3342 35.4319 25.3104 35.4893C25.2867 35.5466 25.2744 35.6081 25.2744 35.6701V37.5586C25.2742 37.6209 25.2862 37.6825 25.3099 37.7401C25.3336 37.7977 25.3684 37.85 25.4123 37.8941C25.4562 37.9382 25.5084 37.9732 25.5659 37.9971C25.6234 38.0209 25.685 38.0332 25.7473 38.0332ZM26.2195 36.143H27.1647V37.0899H26.2195V36.143Z" fill="#1CAF57"/>
<path d="M21.0217 34.2527H22.9102C22.9722 34.2528 23.0337 34.2406 23.0911 34.2169C23.1485 34.1932 23.2006 34.1585 23.2445 34.1146C23.2884 34.0707 23.3233 34.0187 23.347 33.9613C23.3708 33.904 23.383 33.8425 23.383 33.7804V31.8902C23.383 31.7648 23.3332 31.6445 23.2445 31.5559C23.1559 31.4672 23.0356 31.4174 22.9102 31.4174H21.0217C20.9596 31.4174 20.8982 31.4296 20.8408 31.4534C20.7835 31.4771 20.7314 31.512 20.6876 31.5559C20.6437 31.5998 20.6089 31.6519 20.5852 31.7093C20.5615 31.7667 20.5494 31.8281 20.5494 31.8902V33.7804C20.5494 33.9057 20.5992 34.0258 20.6878 34.1144C20.7763 34.203 20.8965 34.2527 21.0217 34.2527ZM21.4946 32.3625H22.4414V33.3076H21.4946V32.3625Z" fill="#1CAF57"/>
<path d="M25.7473 34.2527H27.6375C27.7628 34.2527 27.8829 34.203 27.9714 34.1144C28.06 34.0258 28.1098 33.9057 28.1098 33.7804V31.8902C28.1099 31.8281 28.0977 31.7667 28.074 31.7093C28.0503 31.6519 28.0155 31.5998 27.9717 31.5559C27.9278 31.512 27.8757 31.4771 27.8184 31.4534C27.761 31.4296 27.6996 31.4174 27.6375 31.4174H25.7473C25.6219 31.4174 25.5016 31.4672 25.4129 31.5559C25.3242 31.6445 25.2744 31.7648 25.2744 31.8902V33.7804C25.2744 33.8425 25.2866 33.904 25.3104 33.9613C25.3342 34.0187 25.369 34.0707 25.4129 34.1146C25.4569 34.1585 25.509 34.1932 25.5664 34.2169C25.6237 34.2406 25.6852 34.2528 25.7473 34.2527ZM26.2195 32.3625H27.1647V33.3076H26.2195V32.3625Z" fill="#1CAF57"/>
<path d="M21.0217 30.4723H22.9102C22.9724 30.4726 23.0341 30.4606 23.0916 30.437C23.1492 30.4134 23.2015 30.3787 23.2456 30.3348C23.2897 30.2909 23.3247 30.2387 23.3486 30.1813C23.3725 30.1238 23.3848 30.0622 23.3848 30V28.1098C23.3848 28.0477 23.3726 27.9863 23.3488 27.9289C23.325 27.8716 23.2902 27.8195 23.2463 27.7756C23.2023 27.7318 23.1502 27.697 23.0929 27.6733C23.0355 27.6496 22.974 27.6374 22.9119 27.6375H21.0217C20.8965 27.6375 20.7763 27.6873 20.6878 27.7758C20.5992 27.8644 20.5494 27.9845 20.5494 28.1098V30C20.5494 30.062 20.5617 30.1235 20.5854 30.1808C20.6091 30.2381 20.6439 30.2901 20.6878 30.334C20.7316 30.3778 20.7837 30.4126 20.841 30.4363C20.8983 30.4601 20.9597 30.4723 21.0217 30.4723ZM21.4946 28.5826H22.4414V29.5278H21.4946V28.5826Z" fill="#1CAF57"/>
<path d="M25.7473 30.4723H27.6375C27.6995 30.4723 27.7609 30.4601 27.8182 30.4363C27.8755 30.4126 27.9276 30.3778 27.9714 30.334C28.0153 30.2901 28.0501 30.238 28.0738 30.1808C28.0975 30.1235 28.1098 30.062 28.1098 30V28.1098C28.1098 27.9845 28.06 27.8644 27.9714 27.7758C27.8829 27.6873 27.7628 27.6375 27.6375 27.6375H25.7473C25.6852 27.6374 25.6237 27.6496 25.5664 27.6733C25.509 27.697 25.4569 27.7318 25.4129 27.7756C25.369 27.8195 25.3342 27.8716 25.3104 27.9289C25.2866 27.9863 25.2744 28.0477 25.2744 28.1098V30C25.2744 30.0621 25.2866 30.1235 25.3104 30.1809C25.3342 30.2382 25.369 30.2903 25.4129 30.3342C25.4569 30.378 25.509 30.4128 25.5664 30.4365C25.6237 30.4602 25.6852 30.4724 25.7473 30.4723ZM26.2195 28.5826H27.1646V29.5278H26.2195V28.5826Z" fill="#1CAF57"/>
<path d="M34.2527 31.4174H32.3625C32.3005 31.4174 32.239 31.4296 32.1817 31.4534C32.1243 31.4771 32.0722 31.512 32.0284 31.5559C31.9845 31.5998 31.9497 31.6519 31.926 31.7093C31.9023 31.7667 31.8902 31.8281 31.8903 31.8902V33.7804C31.8903 33.9057 31.94 34.0258 32.0286 34.1144C32.1171 34.203 32.2373 34.2527 32.3625 34.2527H34.2527C34.3148 34.2528 34.3763 34.2406 34.4336 34.2169C34.491 34.1932 34.5431 34.1585 34.5871 34.1146C34.631 34.0707 34.6658 34.0187 34.6896 33.9613C34.7134 33.904 34.7256 33.8425 34.7256 33.7804V31.8902C34.7256 31.7648 34.6758 31.6445 34.5871 31.5559C34.4984 31.4672 34.3781 31.4174 34.2527 31.4174ZM33.7805 33.3076H32.8354V32.3625H33.7805V33.3076Z" fill="#1CAF57"/>
<path d="M38.9783 31.4174H37.0899C36.9644 31.4174 36.8442 31.4672 36.7555 31.5559C36.6668 31.6445 36.617 31.7648 36.617 31.8902V33.7804C36.617 33.8425 36.6292 33.904 36.653 33.9613C36.6768 34.0186 36.7116 34.0707 36.7555 34.1146C36.7994 34.1585 36.8516 34.1932 36.9089 34.2169C36.9663 34.2406 37.0278 34.2528 37.0899 34.2527H38.9801C39.1053 34.2527 39.2254 34.203 39.314 34.1144C39.4026 34.0258 39.4523 33.9057 39.4523 33.7804V31.8902C39.4524 31.828 39.4402 31.7664 39.4164 31.7089C39.3926 31.6514 39.3576 31.5992 39.3136 31.5553C39.2696 31.5113 39.2173 31.4765 39.1597 31.4529C39.1022 31.4292 39.0405 31.4171 38.9783 31.4174ZM38.5055 33.3076H37.5586V32.3625H38.5037L38.5055 33.3076Z" fill="#1CAF57"/>
<path d="M34.2528 27.6375H32.3625C32.2373 27.6375 32.1171 27.6873 32.0286 27.7758C31.94 27.8644 31.8903 27.9845 31.8903 28.1098V30C31.8903 30.062 31.9025 30.1235 31.9262 30.1808C31.9499 30.238 31.9847 30.2901 32.0286 30.334C32.0724 30.3778 32.1245 30.4126 32.1818 30.4363C32.2391 30.4601 32.3005 30.4723 32.3625 30.4723H34.2528C34.3148 30.4724 34.3763 30.4602 34.4337 30.4365C34.491 30.4128 34.5432 30.378 34.5871 30.3342C34.631 30.2903 34.6658 30.2382 34.6896 30.1809C34.7134 30.1235 34.7256 30.0621 34.7256 30V28.1098C34.7256 28.0477 34.7134 27.9863 34.6896 27.9289C34.6658 27.8716 34.631 27.8195 34.5871 27.7756C34.5432 27.7318 34.491 27.697 34.4337 27.6733C34.3763 27.6496 34.3148 27.6374 34.2528 27.6375ZM33.7805 29.5278H32.8354V28.5826H33.7805V29.5278Z" fill="#1CAF57"/>
<path d="M38.9783 27.6375H37.0899C37.0278 27.6374 36.9663 27.6496 36.9089 27.6733C36.8516 27.697 36.7995 27.7318 36.7555 27.7756C36.7116 27.8195 36.6768 27.8716 36.653 27.9289C36.6292 27.9863 36.617 28.0477 36.617 28.1098V30C36.617 30.0621 36.6292 30.1235 36.653 30.1809C36.6768 30.2382 36.7116 30.2903 36.7555 30.3342C36.7995 30.378 36.8516 30.4128 36.9089 30.4365C36.9663 30.4602 37.0278 30.4724 37.0899 30.4723H38.9801C39.0421 30.4723 39.1035 30.4601 39.1608 30.4363C39.2181 30.4126 39.2702 30.3778 39.314 30.334C39.3579 30.2901 39.3927 30.238 39.4164 30.1807C39.4401 30.1234 39.4524 30.062 39.4524 30V28.1098C39.4524 28.0476 39.4401 27.9861 39.4162 27.9286C39.3924 27.8712 39.3575 27.8191 39.3134 27.7752C39.2694 27.7313 39.2171 27.6966 39.1596 27.673C39.1021 27.6493 39.0405 27.6373 38.9783 27.6375ZM38.5055 29.5278H37.5586V28.5826H38.5037L38.5055 29.5278Z" fill="#1CAF57"/>
<path d="M34.2527 23.8571H32.3625C32.3005 23.8571 32.239 23.8693 32.1817 23.8931C32.1243 23.9168 32.0722 23.9517 32.0284 23.9956C31.9845 24.0395 31.9497 24.0916 31.926 24.149C31.9023 24.2064 31.8902 24.2678 31.8903 24.3299V26.2196C31.8902 26.2816 31.9023 26.3431 31.926 26.4005C31.9497 26.4578 31.9845 26.51 32.0284 26.5539C32.0722 26.5978 32.1243 26.6326 32.1817 26.6564C32.239 26.6802 32.3005 26.6924 32.3625 26.6924H34.2527C34.3781 26.6924 34.4984 26.6426 34.5871 26.5539C34.6758 26.4652 34.7256 26.345 34.7256 26.2196V24.3299C34.7256 24.2045 34.6758 24.0842 34.5871 23.9956C34.4984 23.9069 34.3781 23.8571 34.2527 23.8571ZM33.7805 25.7473H32.8354V24.8022H33.7805V25.7473Z" fill="#1CAF57"/>
<path d="M38.9783 23.8571H37.0899C36.9644 23.8571 36.8442 23.9069 36.7555 23.9956C36.6668 24.0842 36.617 24.2045 36.617 24.3299V26.2196C36.617 26.345 36.6668 26.4652 36.7555 26.5539C36.8442 26.6426 36.9644 26.6924 37.0899 26.6924H38.9801C39.0421 26.6924 39.1036 26.6802 39.1609 26.6564C39.2183 26.6326 39.2704 26.5978 39.3142 26.5539C39.3581 26.51 39.3929 26.4578 39.4166 26.4005C39.4403 26.3431 39.4524 26.2816 39.4523 26.2196V24.3299C39.4524 24.2677 39.4402 24.2061 39.4164 24.1486C39.3926 24.0911 39.3576 24.0389 39.3136 23.995C39.2696 23.951 39.2173 23.9162 39.1597 23.8926C39.1022 23.8689 39.0405 23.8568 38.9783 23.8571ZM38.5055 25.7473H37.5586V24.8022H38.5037L38.5055 25.7473Z" fill="#1CAF57"/>
<path d="M34.2528 20.0771H32.3625C32.2373 20.0771 32.1171 20.1269 32.0286 20.2155C31.94 20.304 31.8903 20.4242 31.8903 20.5494V22.4414C31.8903 22.5667 31.94 22.6868 32.0286 22.7754C32.1171 22.8639 32.2373 22.9137 32.3625 22.9137H34.2528C34.3148 22.9138 34.3763 22.9016 34.4337 22.8779C34.491 22.8542 34.5432 22.8194 34.5871 22.7756C34.631 22.7317 34.6658 22.6796 34.6896 22.6223C34.7134 22.5649 34.7256 22.5035 34.7256 22.4414V20.5494C34.7256 20.4873 34.7134 20.4259 34.6896 20.3686C34.6658 20.3112 34.631 20.2591 34.5871 20.2153C34.5432 20.1714 34.491 20.1366 34.4337 20.1129C34.3763 20.0892 34.3148 20.0771 34.2528 20.0771ZM33.7805 21.9668H32.8354V21.0217H33.7805V21.9668Z" fill="#1CAF57"/>
<path d="M38.9783 20.0772H37.0899C37.0278 20.0771 36.9663 20.0892 36.9089 20.1129C36.8516 20.1366 36.7995 20.1714 36.7555 20.2153C36.7116 20.2591 36.6768 20.3112 36.653 20.3686C36.6292 20.4259 36.617 20.4874 36.617 20.5494V22.4414C36.6179 22.5662 36.6682 22.6855 36.7568 22.7733C36.8454 22.8611 36.9651 22.9103 37.0899 22.9102H38.9801C39.0421 22.9102 39.1035 22.898 39.1608 22.8742C39.2181 22.8505 39.2702 22.8157 39.314 22.7718C39.3579 22.728 39.3927 22.6759 39.4164 22.6186C39.4401 22.5613 39.4524 22.4999 39.4524 22.4379V20.5494C39.4524 20.4873 39.4401 20.4257 39.4162 20.3683C39.3924 20.3109 39.3575 20.2587 39.3134 20.2149C39.2694 20.171 39.2171 20.1362 39.1596 20.1126C39.1021 20.089 39.0405 20.0769 38.9783 20.0772ZM38.5055 21.9668H37.5586V21.0217H38.5037L38.5055 21.9668Z" fill="#1CAF57"/>
<path d="M43.2311 43.7033H41.8131V18.1055C42.1285 17.9941 42.3943 17.7749 42.5636 17.4864C42.7329 17.198 42.7947 16.859 42.7382 16.5294C42.6817 16.1997 42.5104 15.9007 42.2547 15.6852C41.999 15.4696 41.6753 15.3515 41.3408 15.3516H30C29.6656 15.3515 29.3419 15.4696 29.0862 15.6852C28.8304 15.9007 28.6592 16.1997 28.6026 16.5294C28.5461 16.859 28.608 17.198 28.7773 17.4864C28.9466 17.7749 29.2124 17.9941 29.5277 18.1055V22.9102H18.6592C18.3247 22.9101 18.0011 23.0282 17.7453 23.2438C17.4896 23.4593 17.3183 23.7583 17.2618 24.088C17.2053 24.4176 17.2671 24.7566 17.4364 25.045C17.6057 25.3334 17.8716 25.5527 18.1869 25.6641V43.7033H16.769C16.6465 43.7076 16.5305 43.7593 16.4454 43.8475C16.3603 43.9356 16.3127 44.0534 16.3127 44.1759C16.3127 44.2984 16.3603 44.4161 16.4454 44.5043C16.5305 44.5924 16.6465 44.6441 16.769 44.6484H43.2311C43.3535 44.6441 43.4695 44.5924 43.5546 44.5043C43.6397 44.4161 43.6873 44.2984 43.6873 44.1759C43.6873 44.0534 43.6397 43.9356 43.5546 43.8475C43.4695 43.7593 43.3535 43.7076 43.2311 43.7033ZM30 16.2967H41.3408C41.4633 16.301 41.5793 16.3527 41.6644 16.4408C41.7495 16.529 41.797 16.6467 41.797 16.7692C41.797 16.8918 41.7495 17.0095 41.6644 17.0977C41.5793 17.1858 41.4633 17.2375 41.3408 17.2418H30C29.8776 17.2375 29.7616 17.1858 29.6765 17.0977C29.5914 17.0095 29.5438 16.8918 29.5438 16.7692C29.5438 16.6467 29.5914 16.529 29.6765 16.4408C29.7616 16.3527 29.8776 16.301 30 16.2967ZM18.6592 23.8553H29.5277V24.8004H18.6592C18.5367 24.7961 18.4207 24.7444 18.3356 24.6563C18.2505 24.5681 18.203 24.4504 18.203 24.3278C18.203 24.2053 18.2505 24.0876 18.3356 23.9994C18.4207 23.9113 18.5367 23.8596 18.6592 23.8553ZM19.132 25.7455H29.5277V43.7033H26.6924V40.3957C26.6924 40.2703 26.6426 40.15 26.5539 40.0613C26.4652 39.9727 26.345 39.9229 26.2195 39.9229H22.4414C22.316 39.9229 22.1957 39.9727 22.1071 40.0613C22.0184 40.15 21.9686 40.2703 21.9686 40.3957V43.7033H19.132V25.7455ZM22.9102 43.7033V40.868H25.7455V43.7033H22.9102ZM34.251 43.7033V40.868H37.0899V43.7033H34.251ZM38.0315 43.7033V40.3957C38.0315 40.2703 37.9816 40.15 37.893 40.0613C37.8043 39.9727 37.684 39.9229 37.5586 39.9229H33.7805C33.6551 39.9229 33.5348 39.9727 33.4461 40.0613C33.3575 40.15 33.3076 40.2703 33.3076 40.3957V43.7033H30.4723V18.1869H40.868V43.7033H38.0315Z" fill="#1CAF57"/>
</svg>
