<svg width="60" height="60" viewBox="0 0 60 60" fill="none" xmlns="http://www.w3.org/2000/svg">
<rect opacity="0.1" width="60" height="60" rx="12" fill="#1CAF57"/>
<path d="M42.1875 15.4688H17.8125C16.5202 15.4688 15.4688 16.5202 15.4688 17.8125V35.1562C15.4688 36.4486 16.5202 37.5 17.8125 37.5H26.5842C26.9681 38.0484 27.1875 38.7009 27.1875 39.375C27.1875 39.8644 27.0722 40.3434 26.8645 40.7812H24.8438C23.5514 40.7812 22.5 41.8327 22.5 43.125V44.0625C22.5 44.3213 22.7095 44.5312 22.9688 44.5312H37.0312C37.2905 44.5312 37.5 44.3213 37.5 44.0625V43.125C37.5 41.8327 36.4486 40.7812 35.1562 40.7812H33.1355C32.9273 40.3434 32.8125 39.8639 32.8125 39.375C32.8125 38.692 33.0263 38.0517 33.4139 37.5H42.1875C43.4798 37.5 44.5312 36.4486 44.5312 35.1562V17.8125C44.5312 16.5202 43.4798 15.4688 42.1875 15.4688ZM17.8125 16.4062H42.1875C42.9628 16.4062 43.5938 17.0372 43.5938 17.8125V30.9375H42.6562V18.2812C42.6562 17.7642 42.2358 17.3438 41.7188 17.3438H18.2812C17.7642 17.3438 17.3438 17.7642 17.3438 18.2812V30.9375H16.4062V17.8125C16.4062 17.0372 17.0372 16.4062 17.8125 16.4062ZM33.8288 22.5014C34.2206 22.2019 34.703 22.0312 35.2055 22.0312C36.173 22.0312 37.0411 22.658 37.3655 23.5912C37.4316 23.7797 37.6088 23.9062 37.8084 23.9062H41.7188V24.8438H37.8028C37.6036 24.8438 37.4264 24.9694 37.3608 25.1569C37.0781 25.9603 36.3783 26.5617 35.5767 26.6888C34.9387 26.7909 34.313 26.6231 33.8259 26.2481C34.8248 26.2087 35.625 25.3833 35.625 24.375C35.625 23.3677 34.8263 22.5431 33.8288 22.5014ZM41.7188 22.9688H38.1234C37.5933 21.8348 36.4594 21.0938 35.2055 21.0938C34.0537 21.0938 32.9808 21.7238 32.4052 22.7372C32.3227 22.8825 32.3236 23.0602 32.4075 23.2045C32.4914 23.3489 32.6461 23.4375 32.813 23.4375H33.75C34.267 23.4375 34.6875 23.858 34.6875 24.375C34.6875 24.892 34.267 25.3125 33.7495 25.3125L32.812 25.313C32.6456 25.313 32.4909 25.4016 32.4075 25.5464C32.3236 25.6908 32.3227 25.8689 32.4052 26.0138C32.9925 27.0459 34.0552 27.6562 35.2059 27.6562C35.377 27.6562 35.55 27.6427 35.7239 27.6155C36.7519 27.4519 37.6598 26.7464 38.1164 25.7817H41.7188V30.938H18.2812V18.2812H41.7188V22.9688ZM36.5625 43.125V43.5938H23.4375V43.125C23.4375 42.3497 24.0684 41.7188 24.8438 41.7188H35.1562C35.9316 41.7188 36.5625 42.3497 36.5625 43.125ZM32.1248 40.7812H27.8752C28.0345 40.3312 28.125 39.8573 28.125 39.375C28.125 38.7206 27.9684 38.0794 27.6811 37.5H32.3189C32.032 38.0798 31.875 38.722 31.875 39.375C31.875 39.8569 31.9659 40.3312 32.1248 40.7812ZM42.1875 36.5625H17.8125C17.0372 36.5625 16.4062 35.9316 16.4062 35.1562V31.875H43.5938V35.1562C43.5938 35.9316 42.9628 36.5625 42.1875 36.5625Z" fill="#1CAF57"/>
<path d="M30 32.8125C29.2247 32.8125 28.5938 33.4434 28.5938 34.2188C28.5938 34.9941 29.2247 35.625 30 35.625C30.7753 35.625 31.4062 34.9941 31.4062 34.2188C31.4062 33.4434 30.7753 32.8125 30 32.8125ZM30 34.6875C29.7413 34.6875 29.5312 34.477 29.5312 34.2188C29.5312 33.9605 29.7413 33.75 30 33.75C30.2587 33.75 30.4688 33.9605 30.4688 34.2188C30.4688 34.477 30.2587 34.6875 30 34.6875Z" fill="#1CAF57"/>
<path d="M21.5625 25.7812H22.2103L22.3983 26.1577L21.6998 26.8561C21.5166 27.0394 21.5166 27.3356 21.6998 27.5189L23.1061 28.9252C23.2894 29.1084 23.5856 29.1084 23.7689 28.9252L24.4673 28.2267L24.8438 28.4147V29.0625C24.8438 29.3212 25.0533 29.5312 25.3125 29.5312H27.1875C27.4467 29.5312 27.6562 29.3212 27.6562 29.0625V28.4147L28.0327 28.2267L28.7311 28.9252C28.9144 29.1084 29.2106 29.1084 29.3939 28.9252L30.8002 27.5189C30.9834 27.3356 30.9834 27.0394 30.8002 26.8561L30.1017 26.1577L30.2897 25.7812H30.9375C31.1967 25.7812 31.4062 25.5712 31.4062 25.3125V23.4375C31.4062 23.1788 31.1967 22.9688 30.9375 22.9688H30.2897L30.1017 22.5923L30.8002 21.8939C30.9834 21.7106 30.9834 21.4144 30.8002 21.2311L29.3939 19.8248C29.2106 19.6416 28.9144 19.6416 28.7311 19.8248L28.0327 20.5233L27.6562 20.3353V19.6875C27.6562 19.4288 27.4467 19.2188 27.1875 19.2188H25.3125C25.0533 19.2188 24.8438 19.4288 24.8438 19.6875V20.3353L24.4673 20.5233L23.7689 19.8248C23.5856 19.6416 23.2894 19.6416 23.1061 19.8248L21.6998 21.2311C21.5166 21.4144 21.5166 21.7106 21.6998 21.8939L22.3983 22.5923L22.2103 22.9688H21.5625C21.3033 22.9688 21.0938 23.1788 21.0938 23.4375V25.3125C21.0938 25.5712 21.3033 25.7812 21.5625 25.7812ZM22.0312 23.9062H22.5C22.6777 23.9062 22.8398 23.8059 22.9195 23.647L23.3883 22.7095C23.4783 22.5291 23.4431 22.3111 23.3002 22.1686L22.6941 21.5625L23.4375 20.8191L24.0436 21.4252C24.187 21.5681 24.405 21.6028 24.5845 21.5133L25.522 21.0445C25.6809 20.9648 25.7812 20.8027 25.7812 20.625V20.1562H26.7188V20.625C26.7188 20.8027 26.8191 20.9648 26.978 21.0445L27.9155 21.5133C28.0959 21.6023 28.3134 21.5681 28.4564 21.4252L29.0625 20.8191L29.8059 21.5625L29.1998 22.1686C29.0569 22.3111 29.0217 22.5291 29.1117 22.7095L29.5805 23.647C29.6602 23.8059 29.8223 23.9062 30 23.9062H30.4688V24.8438H30C29.8223 24.8438 29.6602 24.9441 29.5805 25.103L29.1117 26.0405C29.0217 26.2209 29.0569 26.4389 29.1998 26.5814L29.8059 27.1875L29.0625 27.9309L28.4564 27.3248C28.3134 27.1823 28.0959 27.1481 27.9155 27.2367L26.978 27.7055C26.8191 27.7852 26.7188 27.9473 26.7188 28.125V28.5938H25.7812V28.125C25.7812 27.9473 25.6809 27.7852 25.522 27.7055L24.5845 27.2367C24.4041 27.1472 24.1866 27.1814 24.0436 27.3248L23.4375 27.9309L22.6941 27.1875L23.3002 26.5814C23.4431 26.4389 23.4783 26.2209 23.3883 26.0405L22.9195 25.103C22.8398 24.9441 22.6777 24.8438 22.5 24.8438H22.0312V23.9062Z" fill="#1CAF57"/>
<path d="M26.25 26.7188C27.5423 26.7188 28.5938 25.6673 28.5938 24.375C28.5938 23.0827 27.5423 22.0312 26.25 22.0312C24.9577 22.0312 23.9062 23.0827 23.9062 24.375C23.9062 25.6673 24.9577 26.7188 26.25 26.7188ZM26.25 22.9688C27.0253 22.9688 27.6562 23.5997 27.6562 24.375C27.6562 25.1503 27.0253 25.7812 26.25 25.7812C25.4747 25.7812 24.8438 25.1503 24.8438 24.375C24.8438 23.5997 25.4747 22.9688 26.25 22.9688Z" fill="#1CAF57"/>
</svg>
