<svg width="60" height="60" viewBox="0 0 60 60" fill="none" xmlns="http://www.w3.org/2000/svg">
<rect opacity="0.1" width="60" height="60" rx="12" fill="#1CAF57"/>
<g clip-path="url(#clip0_332_6)">
<path d="M40.3996 38.2218C40.0477 37.4012 39.3695 36.7427 38.5388 36.4152L33.4265 34.3993C33.3153 34.3554 33.2434 34.2499 33.2434 34.1303V32.5417C34.3381 31.7205 35.131 30.6449 35.6043 29.337C35.7642 28.895 35.8873 28.4258 35.9741 27.9319C37.0886 27.8801 37.9794 26.9574 37.9794 25.8303C37.9794 25.6014 37.941 25.3741 37.8685 25.1584C38.2093 24.9266 38.4335 24.5359 38.4335 24.0936V23.9859C38.4335 23.2763 37.8563 22.699 37.1467 22.699H36.8252V21.7265C36.8252 19.4231 35.5769 17.3245 33.5604 16.221C33.5129 15.5398 32.944 15 32.2509 15C31.8389 15 31.4707 15.191 31.2297 15.4888C31.005 15.4647 30.7776 15.4523 30.5511 15.4523H29.5945C29.3263 15.4523 29.0563 15.4695 28.7919 15.5033C28.7754 15.5054 28.7593 15.5085 28.7434 15.5124C28.5025 15.2349 28.1476 15.059 27.7522 15.059C27.0501 15.059 26.475 15.6127 26.4406 16.3064C26.4225 16.3141 26.4046 16.3227 26.3873 16.333C24.4956 17.4602 23.3205 19.5268 23.3205 21.7264V22.699H22.8858C22.1763 22.699 21.599 23.2763 21.599 23.9858V24.0936C21.599 24.5495 21.8376 24.9506 22.1963 25.1792C22.1281 25.3884 22.0936 25.6066 22.0936 25.8303C22.0936 26.9334 22.947 27.8403 24.0282 27.927C24.1138 28.4157 24.2347 28.8802 24.3919 29.318C24.8639 30.6334 25.6582 31.7146 26.7567 32.5395V34.1303C26.7567 34.2498 26.6848 34.3554 26.5736 34.3993L21.4612 36.4152C20.6306 36.7427 19.9524 37.4012 19.6004 38.2219C18.8073 40.0713 18.4052 42.0294 18.4052 44.0418C18.4052 44.5701 18.835 45 19.3634 45H34.2137C34.4582 45 34.6563 44.8018 34.6563 44.5574C34.6563 44.3129 34.4582 44.1148 34.2137 44.1148H30.1487V43.0242H31.0902C31.4891 43.0242 31.8136 42.6997 31.8136 42.3007V41.2124C31.8136 40.8134 31.4891 40.4889 31.0902 40.4889H30.1487V39.2413H32.2266C33.1805 39.2413 33.9565 38.4652 33.9565 37.5113V35.5598L34.7214 35.8614V38.1438C34.7214 38.8392 34.9846 39.5005 35.4627 40.0059L36.1322 40.7136C36.3025 40.8936 36.3963 41.1292 36.3963 41.3771V44.1148H35.9842C35.7397 44.1148 35.5416 44.3129 35.5416 44.5574C35.5416 44.8018 35.7397 45 35.9842 45H40.6368C41.1652 45 41.595 44.5701 41.595 44.0418C41.5949 42.0294 41.1928 40.0712 40.3996 38.2218ZM27.6418 33.103C28.3791 33.4825 29.1902 33.673 30.0015 33.673C30.8118 33.673 31.6217 33.483 32.3582 33.1045V34.1051C32.3505 34.1134 32.3428 34.1217 32.3356 34.1307L32.0953 34.4336C31.5849 35.0768 30.8212 35.4457 30 35.4457C29.1789 35.4457 28.4151 35.0768 27.9047 34.4336L27.6605 34.1259C27.6546 34.1184 27.6481 34.1116 27.6418 34.1046V33.103ZM36.0892 27.0292C36.1328 26.5031 36.1391 25.9529 36.1079 25.3803H37.0084C37.0651 25.5226 37.0942 25.6734 37.0942 25.8302C37.0942 26.4292 36.6595 26.9276 36.0892 27.0292ZM35.94 21.7264V22.699H33.5641V17.2578C35.0428 18.2539 35.94 19.9167 35.94 21.7264ZM31.8229 22.699V16.3722C31.8229 16.1362 32.0149 15.9442 32.2509 15.9442C32.4869 15.9442 32.6789 16.1362 32.6789 16.3722V22.699H31.8229ZM29.5945 16.3376H30.5511C30.6799 16.3376 30.8091 16.3422 30.9377 16.3513V16.3722V22.699H29.0654V16.3722C29.0654 16.3693 29.0652 16.3664 29.0651 16.3634C29.2406 16.3464 29.418 16.3376 29.5945 16.3376ZM24.2057 21.7264C24.2057 19.9981 25.0509 18.3657 26.439 17.3586V19.2384C26.439 19.4829 26.6371 19.681 26.8816 19.681C27.126 19.681 27.3242 19.4829 27.3242 19.2384V16.3722C27.3242 16.1362 27.5162 15.9442 27.7522 15.9442C27.9882 15.9442 28.1802 16.1362 28.1802 16.3722V22.699H27.3243V21.0088C27.3243 20.7644 27.1261 20.5662 26.8816 20.5662C26.6372 20.5662 26.439 20.7644 26.439 21.0088V22.699H24.2057V21.7264ZM22.4842 23.9858C22.4842 23.7644 22.6644 23.5842 22.8858 23.5842H37.1468C37.3682 23.5842 37.5483 23.7644 37.5483 23.9858V24.0936C37.5483 24.315 37.3682 24.4951 37.1468 24.4951H22.8858C22.6644 24.4951 22.4842 24.315 22.4842 24.0936V23.9858ZM22.9788 25.8302C22.9788 25.6741 23.0092 25.5232 23.0661 25.3803H23.8949C23.8639 25.9474 23.8701 26.4925 23.9126 27.0141C23.3778 26.8851 22.9788 26.404 22.9788 25.8302ZM24.7819 25.3803H35.2211C35.4045 28.5066 34.4169 30.7774 32.2825 32.13C30.8969 33.0081 29.1061 33.0081 27.7205 32.13C25.5859 30.7772 24.5983 28.5065 24.7819 25.3803ZM19.2903 44.0418C19.2903 42.1501 19.6684 40.3093 20.4139 38.5707C20.6734 37.9657 21.1735 37.4802 21.7859 37.2387L24.3957 36.2096V38.1438C24.3957 38.6121 24.2184 39.0573 23.8966 39.3976L23.2272 40.1053C22.9008 40.4504 22.7209 40.902 22.7209 41.3771V44.1148H19.3634C19.3231 44.1148 19.2903 44.082 19.2903 44.0418ZM30.9284 42.139H27.5271V41.3741H30.9284V42.139ZM27.3654 40.4889C26.9665 40.4889 26.6419 40.8134 26.6419 41.2124V42.3007C26.6419 42.6997 26.9665 43.0242 27.3654 43.0242H29.2635V44.1148H23.6061V41.3771C23.6061 41.1293 23.6999 40.8936 23.8703 40.7136L24.5397 40.0059C25.0176 39.5007 25.2809 38.8393 25.2809 38.1438C25.2809 38.1438 25.2801 35.8701 25.2795 35.8611L26.0458 35.5589V37.5113C26.0458 38.4652 26.8219 39.2413 27.7758 39.2413H29.2635V40.4889H27.3654ZM32.2266 38.3561H27.7758C27.31 38.3561 26.931 37.9771 26.931 37.5113V35.2084C27.0451 35.1595 27.1483 35.0944 27.2386 35.0163C27.9177 35.8519 28.9213 36.331 30 36.331C31.0788 36.331 32.0825 35.8519 32.7616 35.0163C32.8525 35.0949 32.9564 35.1604 33.0714 35.2094V37.5113C33.0713 37.9771 32.6923 38.3561 32.2266 38.3561ZM40.6368 44.1148H37.2815V41.3771C37.2815 40.902 37.1017 40.4503 36.7753 40.1053L36.1058 39.3976C35.7839 39.0573 35.6067 38.6121 35.6067 38.1438V36.2105L38.2142 37.2387C38.8266 37.4802 39.3267 37.9657 39.5862 38.5707C40.3317 40.3093 40.7098 42.15 40.7098 44.0418C40.7097 44.082 40.6769 44.1148 40.6368 44.1148Z" fill="#1CAF57"/>
</g>
<defs>
<clipPath id="clip0_332_6">
<rect width="30" height="30" fill="white" transform="translate(15 15)"/>
</clipPath>
</defs>
</svg>
