<svg width="60" height="60" viewBox="0 0 60 60" fill="none" xmlns="http://www.w3.org/2000/svg">
<rect opacity="0.1" width="60" height="60" rx="12" fill="#1CAF57"/>
<g clip-path="url(#clip0_332_4)">
<path d="M30.001 32.9998C29.4488 32.9998 29.0011 32.5522 29.0011 31.9999C29.0011 31.4476 29.4488 31 30.001 31C30.5533 31 31.001 31.4476 31.001 31.9999H32.0009C31.9975 31.0908 31.3813 30.2983 30.501 30.071V29.5001H29.5011V30.071C28.4336 30.3458 27.7909 31.4339 28.0657 32.5014C28.2929 33.3842 29.0894 34.0009 30.001 33.9998C30.5533 33.9998 31.001 34.4474 31.001 34.9997C31.001 35.552 30.5533 35.9996 30.001 35.9996C29.4488 35.9996 29.0011 35.552 29.0011 34.9997H28.0012C28.0046 35.9088 28.6208 36.7013 29.5011 36.9286V37.4995H30.501V36.9286C31.5685 36.6538 32.2111 35.5657 31.9364 34.4982C31.7092 33.6154 30.9127 32.9987 30.001 32.9998Z" fill="#1CAF57"/>
<path d="M30.001 27.0002C26.4114 27.0002 23.5015 29.9102 23.5015 33.4998C23.5015 37.0894 26.4114 39.9994 30.001 39.9994C33.5907 39.9994 36.5006 37.0894 36.5006 33.4998C36.4965 29.9119 33.5889 27.0044 30.001 27.0002ZM30.001 38.9994C26.9637 38.9994 24.5014 36.5372 24.5014 33.4998C24.5014 30.4625 26.9637 28.0002 30.001 28.0002C33.0384 28.0002 35.5007 30.4625 35.5007 33.4998C35.4971 36.5357 33.0369 38.9959 30.001 38.9994Z" fill="#1CAF57"/>
<path d="M44.5 26.0003C44.7761 26.0003 45 25.7765 45 25.5003V23.5005C45 23.494 44.9965 23.489 44.9965 23.4825C44.9946 23.4279 44.9836 23.374 44.964 23.323C44.964 23.317 44.964 23.31 44.9595 23.304C44.9352 23.2494 44.9014 23.1996 44.8595 23.157C44.8447 23.1439 44.8291 23.1315 44.813 23.12C44.7906 23.0988 44.7664 23.0798 44.7405 23.063L30.2415 15.0635C30.0913 14.98 29.9087 14.98 29.7585 15.0635L15.2595 23.063C15.2336 23.0798 15.2094 23.0988 15.187 23.12C15.1709 23.1315 15.1553 23.1439 15.1405 23.157C15.0986 23.1996 15.0648 23.2494 15.0405 23.304C15.0405 23.31 15.0405 23.317 15.036 23.323C15.0164 23.374 15.0054 23.4279 15.0035 23.4825C15.0035 23.489 15 23.494 15 23.5005V25.5003C15 25.7765 15.2239 26.0003 15.5 26.0003H17.0019V40.9993H15.502C15.2259 40.9993 15.002 41.2232 15.002 41.4993V44.4991C15.002 44.7752 15.2259 44.999 15.502 44.999H44.5C44.7761 44.999 45 44.7752 45 44.4991V41.4993C45 41.2232 44.7761 40.9993 44.5 40.9993H43.0001V26.0003H44.5ZM30.001 16.072L42.5587 23.0005H17.4433L30.001 16.072ZM44.0001 41.9992V43.9991H16.0019V41.9992H44.0001ZM18.0018 40.9993V26.0003H20.0017V40.9993H18.0018ZM21.0016 40.9993V26.0003H39.0004V40.9993H21.0016ZM40.0003 40.9993V26.0003H42.0002V40.9993H40.0003ZM16.0019 25.0004V24.0004H44.0001V25.0004H16.0019Z" fill="#1CAF57"/>
</g>
<defs>
<clipPath id="clip0_332_4">
<rect width="30" height="30" fill="white" transform="translate(15 15)"/>
</clipPath>
</defs>
</svg>
