<svg width="36" height="36" viewBox="0 0 36 36" fill="none" xmlns="http://www.w3.org/2000/svg">
<circle cx="18" cy="18" r="17.5" fill="white" stroke="#D5DDE5"/>
<path d="M25.1497 14.3338C25.1612 14.4937 25.1612 14.6536 25.1612 14.8135C25.1612 19.6904 21.4493 25.3097 14.665 25.3097C12.5749 25.3097 10.6333 24.7043 9 23.6536C9.29696 23.6879 9.58247 23.6993 9.89086 23.6993C11.6154 23.6993 13.203 23.1168 14.4708 22.1232C12.849 22.0889 11.4898 21.0267 11.0216 19.5648C11.25 19.599 11.4784 19.6219 11.7183 19.6219C12.0495 19.6219 12.3807 19.5762 12.6891 19.4963C10.9987 19.1536 9.73093 17.6688 9.73093 15.8757V15.83C10.222 16.1041 10.7931 16.2755 11.3984 16.2983C10.4048 15.6358 9.75379 14.5051 9.75379 13.2259C9.75379 12.5407 9.93649 11.9125 10.2563 11.3643C12.0723 13.6028 14.802 15.0647 17.8629 15.2247C17.8058 14.9506 17.7715 14.6651 17.7715 14.3795C17.7715 12.3465 19.4162 10.6904 21.4606 10.6904C22.5228 10.6904 23.4822 11.1359 24.156 11.8554C24.9898 11.6955 25.7893 11.3871 26.4974 10.9645C26.2233 11.8212 25.6408 12.5407 24.8756 12.9975C25.618 12.9176 26.3375 12.712 26.9999 12.4265C26.4975 13.1574 25.8693 13.8084 25.1497 14.3338Z" fill="#8F9CA9"/>
</svg>
